<svg xmlns="http://www.w3.org/2000/svg" width="24" height="24" viewBox="0 0 24 24" fill="none">
<path d="M12.1759 12.8518L11.7382 12.7031L11.6125 12.5826L8.9609 10.0373L5.41075 6.63013C3.91738 8.15692 3.00209 10.208 3 12.4681C3.00838 17.181 6.98161 20.99 11.8932 21C15.6549 21 18.8678 18.758 20.1685 15.594L17.5713 14.704L12.1759 12.8518ZM11.2627 10.875L10.0375 9.69978L5.45683 5.30826C6.98371 3.93214 9.01745 3.0683 11.2627 3V10.875ZM12.3875 3.3375C17.1692 3.48817 20.9895 7.24286 21 11.8634C21 12.7775 20.8492 13.6554 20.5727 14.481L12.3875 11.6725V3.3375Z" fill="#BFBFC0"/>
<path d="M12.3803 2.70215C17.3771 2.8644 21.3693 6.90767 21.3803 11.8833C21.3803 12.8676 21.2227 13.813 20.9338 14.7021L12.3803 11.6778V2.70215Z" fill="#3586FF"/>
</svg>