<svg width="6" height="6" viewBox="0 0 6 6" fill="none">
  <path opacity="0.5" d="M2.99792 2.47774L1.05181 0.531638C0.98247 0.464663 0.889595 0.427603 0.793191 0.428441C0.696788 0.429279 0.604571 0.467948 0.536401 0.536118C0.468231 0.604288 0.429563 0.696505 0.428725 0.792908C0.427887 0.889312 0.464947 0.982188 0.531922 1.05153L2.73797 3.25758C2.80692 3.32651 2.90043 3.36523 2.99792 3.36523C3.09541 3.36523 3.18892 3.32651 3.25787 3.25758L5.46392 1.05153C5.53089 0.982188 5.56795 0.889312 5.56712 0.792908C5.56628 0.696505 5.52761 0.604288 5.45944 0.536118C5.39127 0.467948 5.29905 0.429279 5.20265 0.428441C5.10625 0.427603 5.01337 0.464663 4.94403 0.531638L2.99792 2.47774Z" fill="#ED3737"/>
  <path d="M2.73797 5.46364C2.80692 5.53257 2.90043 5.57129 2.99792 5.57129C3.09542 5.57129 3.18892 5.53257 3.25787 5.46364L5.46392 3.25759C5.53089 3.18824 5.56795 3.09537 5.56712 2.99896C5.56628 2.90256 5.52761 2.81034 5.45944 2.74217C5.39127 2.674 5.29905 2.63533 5.20265 2.6345C5.10625 2.63366 5.01337 2.67072 4.94403 2.73769L2.99792 4.6838L1.05181 2.73769C0.98247 2.67072 0.889595 2.63366 0.793191 2.6345C0.696788 2.63533 0.604571 2.674 0.536401 2.74217C0.468231 2.81034 0.429563 2.90256 0.428725 2.99896C0.427887 3.09537 0.464947 3.18824 0.531922 3.25759L2.73797 5.46364Z" fill="#ED3737"/>
</svg>