<svg width="218" height="126" viewBox="0 0 218 126" fill="none" xmlns="http://www.w3.org/2000/svg">
<g clip-path="url(#clip0_746_48279)">
<path d="M83.9448 15.4502H129.612L132.553 15.8459L135.139 16.9376L137.355 18.6434L139.065 20.8541L140.16 23.4468L140.557 26.3671V87.5701L140.16 90.4904L139.065 93.0695L137.355 95.2802L135.139 96.986L132.553 98.0913L129.612 98.4871C129.612 98.4871 86.3936 98.5354 83.9448 98.4871C81.496 98.4387 79.4519 98.9197 76.7894 96.6258C76.7894 96.6258 75.24 94.5439 74.4912 93.0695C73.9958 92.094 73.6902 91.5445 73.3967 90.4904C73.088 89.3817 73 87.5701 73 87.5701V26.3671L73.3967 23.4468L74.4912 20.8541L76.2014 18.6434L78.4177 16.9376L81.0171 15.8459L83.9448 15.4502Z" fill="url(#paint0_linear_746_48279)"/>
<path d="M116.437 15.4502L116.109 17.7511L115.288 19.7096L113.961 21.4215L112.251 22.75L110.281 23.5717L107.982 23.9004L105.698 23.5717L103.728 22.75L102.017 21.4215L100.69 19.7096L99.8695 17.7511L99.5411 15.4502L99.8695 13.1493L100.69 11.1909L102.017 9.46522L103.728 8.13674L105.698 7.315L107.982 7L110.281 7.315L112.251 8.13674L113.961 9.46522L115.288 11.1909L116.109 13.1493L116.437 15.4502Z" fill="#2F3135"/>
<path d="M110.376 7.2876L112.62 7.6026L114.549 8.41064L116.232 9.71173L117.532 11.3963L118.339 13.3274L118.653 15.5735H139.873C139.873 15.5735 140.905 15.6464 141.501 15.9022C142.066 16.1447 142.365 16.3572 142.8 16.7924C143.235 17.2278 143.447 17.5277 143.69 18.0935C143.945 18.6903 144.018 19.7233 144.018 19.7233V94.3509C144.018 94.3509 143.941 95.3741 143.69 95.9669C143.447 96.5376 143.239 96.8442 142.8 97.2817C142.367 97.7138 142.064 97.9187 141.501 98.1582C140.904 98.4121 139.873 98.487 139.873 98.487H80.3466C80.3466 98.487 79.3155 98.4121 78.7186 98.1582C78.1552 97.9187 77.8526 97.7138 77.4189 97.2817C76.9798 96.8442 76.7718 96.5376 76.5296 95.9669C76.278 95.3741 76.2013 94.3509 76.2013 94.3509V19.7233C76.2013 19.7233 76.2741 18.6903 76.5296 18.0935C76.7719 17.5277 76.9839 17.2278 77.4189 16.7924C77.8537 16.3572 78.1532 16.1447 78.7186 15.9022C79.3147 15.6464 80.3466 15.5735 80.3466 15.5735H102.086L102.4 13.3274L103.208 11.3963L104.521 9.71173L106.19 8.41064L108.119 7.6026L110.376 7.2876Z" fill="url(#paint1_linear_746_48279)"/>
<path fill-rule="evenodd" clip-rule="evenodd" d="M140.392 91.5432L133.949 92.2691L123.319 92.7485L107.059 92.6873L137.437 81.97L138.682 86.8319L140.392 91.5432Z" fill="#828AA4"/>
<path fill-rule="evenodd" clip-rule="evenodd" d="M80.8666 23.873H139.873L139.065 69.5343L139.339 76.0672L140.256 82.4904L141.829 88.8315L138.135 89.7765L133.128 90.7489L127.792 91.557L121.923 92.2143L115.999 92.6389L110.376 92.7896C110.376 92.7896 102.03 92.6007 96.6955 92.2417C91.3677 91.8833 83.0829 90.9544 83.0829 90.9544C83.0829 90.9544 82.4898 90.5541 82.4536 90.16C80.2601 66.2971 80.8666 39.8147 80.8666 23.873Z" fill="url(#paint2_linear_746_48279)"/>
<g filter="url(#filter0_d_746_48279)">
<rect x="87.5067" y="33.7078" width="48.2344" height="2.64355" rx="1.32178" fill="white"/>
<rect x="87.5067" y="40.698" width="48.2344" height="2.64355" rx="1.32178" fill="white"/>
<rect x="87.5067" y="48.1624" width="18.8066" height="2.64355" rx="1.32178" fill="white"/>
<rect x="87.4744" y="79.3477" width="11.377" height="2.64355" rx="1.32178" fill="white"/>
</g>
<circle cx="110.671" cy="15.6455" r="4.83105" fill="#26282B"/>
<circle cx="110.31" cy="15.4468" r="4.83105" fill="url(#paint3_linear_746_48279)"/>
<path d="M169.815 126.466L169.46 125.477L168.133 124.062L165.027 121.966L159.828 119.426L151.975 116.528L143.274 114.091L132.617 111.926L121.385 110.528L108.908 110L96.4307 110.528L85.1986 111.926L74.5411 114.091L65.84 116.528L57.9871 119.426L52.7883 121.966L49.6828 124.062L48.3557 125.477L48 126.466H169.815Z" fill="url(#paint4_linear_746_48279)"/>
<path d="M178.561 113.934V112.414L178.931 110.812L180.121 107.936L181.954 104.744L185.388 100.047L187.44 96.979L189.027 93.7331L190.163 90.2955L190.819 86.7483L190.984 83.1464L190.655 79.4623L190.929 79.4075L191.271 83.119L191.107 86.762L190.436 90.364L189.287 93.829L187.687 97.1023L185.607 100.197L182.214 104.854L180.408 108.018L179.232 110.866L178.862 112.441L178.835 113.866L178.561 113.921V113.934Z" fill="#E0E3EF"/>
<path d="M176.605 113.907L176.318 113.893L176.017 109.88L175.278 105.991L174.101 102.197L172.487 98.5678L170.476 95.1713L168.041 91.9528L166.413 89.5698L165.236 87.1593L164.497 84.7078L163.936 80.9278L163.923 77.4902L164.278 74.2443L164.757 71.9298L165.4 69.6426L165.674 69.7248L165.031 71.9845L164.566 74.2854L164.21 77.4902V80.8867L164.771 84.6256L165.51 87.0634L166.659 89.4465L168.273 91.7884L170.722 95.0343L172.747 98.4719L174.375 102.129L175.565 105.95L176.304 109.867L176.605 113.907Z" fill="#E0E3EF"/>
<path d="M186.4 72.0393L186.182 72.8884L186.017 74.8195L186.154 75.9015L186.565 76.9286L187.878 78.2434L188.63 78.668L189.465 79.0241L190.751 79.3802L191.134 77.8462L191.093 76.3671L190.587 74.8606L189.451 73.5184L188.07 72.5871L186.4 72.0393ZM168.082 69.5467L168.232 67.7115L167.917 65.9858L167.151 64.3149L166.276 64.8217L164.538 66.2049L163.745 67.1773L163.225 68.273L163.074 69.4508L163.239 70.5876L164.005 72.4502L164.47 73.2171L166.043 72.3406L167.233 71.1354L168.082 69.5467ZM190.669 84.7626L190.149 83.2423L189.273 81.996L188.015 80.9826L186.332 80.3799L184.636 80.243L182.871 80.5854L183.131 81.4482L184.034 83.2286L184.772 84.0778L185.73 84.6941L188.193 85.1734L190.669 84.7626ZM198.029 81.1469H197.099L195.047 81.4619L193.939 81.8454L192.981 82.4617L192.064 83.7902L191.558 85.2282L191.435 86.8443L193.104 86.8306L194.636 86.4197L196.087 85.6117L197.208 84.3106L197.838 82.8452L198.029 81.1469ZM157 80.0239L157.369 81.7084L158.094 83.2149L159.189 84.5708L161.583 85.4062L164.141 85.3652L163.868 83.7628L163.211 82.3795L162.117 81.1743L160.502 80.3115L158.82 79.928L157 80.0239ZM171.529 75.8056L171.543 77.2025L171.242 78.531L170.654 79.7636L169.778 80.8456L168.246 81.8591L166.59 82.4069L164.757 82.5439L164.648 81.2154L164.839 79.9143L165.332 78.7091L166.098 77.6134L167.274 76.6958L168.601 76.0795L170.038 75.7782L171.529 75.8056ZM197.838 92.8156L196.812 92.5143L194.459 92.1856L193.09 92.2541L191.804 92.6102L190.313 93.7606L189.219 95.1712L188.466 96.8969L189.424 97.253L190.546 97.4721L191.982 97.5132L194.021 97.0749L195.32 96.3491L196.401 95.3767L197.249 94.1852L197.824 92.8156H197.838Z" fill="url(#paint5_linear_746_48279)"/>
<path d="M191.025 105.347L190.094 104.854L187.864 104.06L186.524 103.854L185.169 103.95L183.459 104.772L182.05 105.936L180.928 107.47L182.625 108.374L184.403 108.798L186.332 108.757L188.234 108.073L189.78 106.949L191.025 105.347Z" fill="url(#paint6_linear_746_48279)"/>
<path d="M163.02 104.854L163.717 105.936L165.66 108.086L167.015 109.072L168.56 109.73L170.23 109.921L171.83 109.73L174.457 108.826L175.538 108.251L174.635 106.744L173.445 105.47L172.035 104.471L170.421 103.772L168.506 103.471L166.604 103.553L164.757 104.019L163.02 104.868V104.854ZM182.023 87.3647L182.036 88.2961L182.419 90.3367L182.884 91.4324L183.61 92.391L184.595 93.0895L185.703 93.5278L187.741 93.8565L188.658 93.8702L188.617 92.1582L188.138 90.638L187.18 89.2411L185.621 88.1317L183.924 87.5154L182.023 87.3647Z" fill="url(#paint7_linear_746_48279)"/>
<path d="M160.01 93.6648L160.639 94.5002L162.349 96.1437L163.498 96.8832L164.798 97.3352L166.782 97.253L168.629 96.7463L170.366 95.7739L169.19 94.24L167.74 93.1306L165.947 92.4048L163.84 92.2815L161.884 92.6924L159.996 93.6785L160.01 93.6648Z" fill="#D3DFEA"/>
<path d="M160.01 93.6648L160.639 94.5002L162.349 96.1437L163.498 96.8832L164.798 97.3352L166.782 97.253L168.629 96.7463L170.366 95.7739L169.19 94.24L167.74 93.1306L165.947 92.4048L163.84 92.2815L161.884 92.6924L159.996 93.6785L160.01 93.6648Z" fill="url(#paint8_linear_746_48279)"/>
<path d="M174.84 95.1438L174.129 95.9245L172.843 97.8692L172.364 99.1018L172.213 100.376L172.473 101.622L173.034 102.731L174.443 104.402L175.196 105.032L176.482 103.649L177.275 102.06L177.617 100.211L177.371 98.7184L176.81 97.3488L175.948 96.1436L174.84 95.1438Z" fill="#CED5E4"/>
<path d="M174.84 95.1438L174.129 95.9245L172.843 97.8692L172.364 99.1018L172.213 100.376L172.473 101.622L173.034 102.731L174.443 104.402L175.196 105.032L176.482 103.649L177.275 102.06L177.617 100.211L177.371 98.7184L176.81 97.3488L175.948 96.1436L174.84 95.1438Z" fill="url(#paint9_linear_746_48279)"/>
<path d="M174.443 84.3792L173.445 84.79L171.379 86.0363L170.38 86.9539L169.655 88.0359L169.313 89.2685V90.5011L169.819 92.5691L170.216 93.4457L171.994 92.7061L173.445 91.5968L174.621 90.0491L175.073 88.6385L175.196 87.2005L174.99 85.7487L174.443 84.3792Z" fill="url(#paint10_linear_746_48279)"/>
<path d="M179.204 93.8291L178.958 94.7193L178.725 96.7874L178.849 97.9652L179.259 99.0745L179.998 99.9921L180.928 100.691L182.789 101.54L183.664 101.786L184.129 100.156L184.116 98.5678L183.61 96.9517L182.433 95.4863L180.983 94.4591L179.218 93.8291H179.204Z" fill="url(#paint11_linear_746_48279)"/>
<path d="M190.655 84.694L190.122 83.2012L189.26 81.9822L188.028 80.9962L186.332 80.3799L184.636 80.2566L182.884 80.599L182.912 80.7359L190.669 84.7077L190.655 84.694Z" fill="url(#paint12_linear_746_48279)" fill-opacity="0.305"/>
<path d="M186.4 72.0393L186.168 72.9569L186.017 74.8743L186.154 75.9289L186.565 76.9287L187.878 78.2434L188.63 78.668L189.465 79.0241L190.751 79.3802L190.806 79.2569L186.4 72.0393Z" fill="url(#paint13_linear_746_48279)" fill-opacity="0.305"/>
<path d="M174.211 84.4612L171.981 85.6253L170.64 86.6799L169.669 88.0494L169.34 89.8436L169.504 91.5692L170.134 93.2675L172.063 88.8164L174.211 84.4612Z" fill="url(#paint14_linear_746_48279)" fill-opacity="0.305"/>
<path d="M157.014 80.0239L157.383 81.7222L158.094 83.215L159.189 84.5709L161.597 85.4063L164.141 85.3652L157.014 80.0239Z" fill="url(#paint15_linear_746_48279)" fill-opacity="0.305"/>
<path d="M143 123.22H195.494L195.207 121.768L194.482 120.714L193.237 119.974L191.294 119.577L188.325 119.659L188.298 118.18L187.778 116.934L186.738 115.838L184.659 114.687L182.1 114.085L179.501 114.181L177.326 115.016L175.834 113.29L174.124 112.332L172.223 111.921L170.348 112.003L168.57 112.482L167.202 113.195L166.189 114.14L165.875 115.016L164.192 113.92L162.194 113.496L160.129 113.674L158.323 114.359L156.941 115.509L156.353 116.961L153.986 116.262L152.098 116.249L150.401 116.755L149.211 117.577L148.404 118.673L148.144 119.782L145.64 120.015L144.136 120.686L143.287 121.727L143 123.22Z" fill="url(#paint16_linear_746_48279)"/>
<path d="M32.0546 110.36L32.2735 110.401L34.1067 106.059L36.6103 102.115L39.7433 98.6636L43.4508 95.7464L45.9544 93.5277L47.7467 91.0488L49.0327 88.3507L49.8262 85.8034L50.4828 81.5029L50.5102 79.6814H50.2913L50.264 81.4892L49.6073 85.7486L48.8274 88.2686L47.5551 90.9392L45.7903 93.3907L43.314 95.5684L39.5791 98.5129L36.4325 102.005L33.9015 105.977L32.0546 110.36Z" fill="#D5DBE8" stroke="#CDD0DB" stroke-width="0.0999848"/>
<path d="M47.4457 80.284L48.0339 78.2434L49.3473 76.5725L50.3597 77.7366L51.0574 78.9282L51.3584 80.2977L50.6607 82.2151L49.2926 83.7216L47.9792 82.2151L47.4457 80.284ZM53.2874 90.2682L52.2203 91.9801L50.6333 93.2264L48.6633 93.3634L46.7616 92.8155L47.7056 91.1995L49.2242 90.1038L51.2763 89.7614L53.2874 90.2682ZM43.4508 84.2421L43.0677 85.639L43.1225 86.9812L43.615 88.3371L45.0515 89.8025L46.9531 90.5969L47.4046 89.2958L47.4593 88.0084L47.09 86.6799L46.1186 85.4747L44.9284 84.6666L43.4508 84.2421Z" fill="url(#paint17_linear_746_48279)"/>
<path d="M44.2306 106.333L43.4645 106.99L41.5218 108.209L40.3041 108.675L38.9908 108.853L37.1712 108.415L35.5705 107.593L34.1477 106.36L35.5568 105.155L37.1438 104.388L38.9771 104.06L40.9608 104.32L42.6846 105.073L44.2306 106.347V106.333Z" fill="url(#paint18_linear_746_48279)"/>
<path d="M49.0327 98.6089L46.9805 99.8552L44.6411 100.389L42.5342 99.595L40.8378 98.1159L42.7121 96.897L44.901 96.4861L46.488 96.8011L47.8424 97.5133L49.0327 98.6226V98.6089Z" fill="#E8F1F8"/>
<path d="M49.0327 98.6089L46.9805 99.8552L44.6411 100.389L42.5342 99.595L40.8378 98.1159L42.7121 96.897L44.901 96.4861L46.488 96.8011L47.8424 97.5133L49.0327 98.6226V98.6089Z" fill="url(#paint19_linear_746_48279)"/>
<path d="M37.6638 96.76L38.0058 97.4859L38.5257 99.1841L38.6077 100.184L38.4299 101.17L37.0481 102.909L35.1328 104.032L34.4898 102.745L34.2709 101.403L34.4487 99.9648L35.2149 98.5678L36.2683 97.5133L37.6638 96.76Z" fill="#E1E6EF"/>
<path d="M37.6638 96.76L38.0058 97.4859L38.5257 99.1841L38.6077 100.184L38.4299 101.17L37.0481 102.909L35.1328 104.032L34.4898 102.745L34.2709 101.403L34.4487 99.9648L35.2149 98.5678L36.2683 97.5133L37.6638 96.76Z" fill="url(#paint20_linear_746_48279)"/>
<path d="M40.4273 88.8301L41.0704 89.3368L42.3153 90.6653L42.8489 91.5555L43.1362 92.5005L42.6984 94.6233L41.4945 96.4175L40.3316 95.5136L39.5107 94.3905L38.9908 93.0209L39.0456 91.4596L39.5107 90.0901L40.4273 88.8301Z" fill="url(#paint21_linear_746_48279)"/>
<path d="M40.5778 88.9397L42.1648 90.501L43.1361 92.5143L42.7394 94.5549L41.5902 96.308L40.5778 88.9397Z" fill="url(#paint22_linear_746_48279)" fill-opacity="0.305"/>
<path d="M54.3819 89.063L53.3148 90.7749L51.7278 92.0213L49.7577 92.1582L47.8561 91.6104L54.3819 89.063Z" fill="url(#paint23_linear_746_48279)" fill-opacity="0.305"/>
<path d="M30.0571 115.509L29.6193 115.482L29.5509 112.441L29.2225 109.305L28.3743 104.676L26.9925 99.7319L24.6804 93.8427L22.7241 89.9669L20.1931 85.8993L17.0328 81.6125L14.9943 78.709L13.421 75.7508L12.2718 72.7377L11.1636 68.0538L10.7258 63.5616L10.7669 59.179L11.1499 55.399L12.3265 49.5099L13.0106 47.1816L13.421 47.3186L12.7369 49.6195L11.5741 55.4538L11.2047 59.1927L11.1499 63.5342L11.5877 67.9716L12.6822 72.6008L13.8041 75.5864L15.3637 78.5036L17.3885 81.366L20.5625 85.6938L23.1071 89.7888L25.0772 93.6921L27.4166 99.636L28.7984 104.608L29.6603 109.278L29.975 112.428L30.0571 115.509Z" fill="#D5DBE8"/>
<path d="M16.855 47.0309L17.1012 44.9629L16.9371 42.9085L16.3761 40.9227L15.4321 39.0601L14.1188 39.8407L11.4647 41.9498L10.2607 43.4153L9.45356 45.0861L9.23466 46.894L9.4946 48.6196L10.6438 51.4409L11.3689 52.6051L12.5728 52.0435L13.681 51.3451L14.9807 50.2357L16.0888 48.8524L16.8687 47.0309H16.855ZM0 62.9727L0.232577 64.3011L1.19025 67.1635L2.07951 68.6427L3.32448 69.9027L4.87043 70.7244L6.53951 71.149L9.53564 71.2722L10.8627 71.1079L10.6301 69.2864L10.0145 67.5881L9.07049 66.0405L7.78448 64.7257L6.00595 63.6848L4.07693 63.0411L2.05215 62.7946L0 62.9727ZM22.1221 56.5494L22.1358 58.6722L21.6844 60.7129L20.7677 62.5892L19.427 64.2327L17.7442 65.4379L15.8699 66.2733L13.8725 66.739L11.8067 66.8074L11.6425 64.7942L11.9298 62.822L12.6686 60.9731L13.8315 59.3159L15.6237 57.919L17.6485 56.974L19.8374 56.5083L22.1221 56.5494Z" fill="url(#paint24_linear_746_48279)"/>
<path d="M9.37146 101.718L10.4523 103.347L11.6562 104.868L13.4074 106.634L15.4595 108.127L17.8263 109.141L20.3573 109.428L22.7925 109.141L25.0909 108.47L26.801 107.757L28.4427 106.881L27.061 104.594L25.2551 102.663L23.1072 101.129L20.6446 100.074L17.7032 99.5264L15.1038 99.6496L12.6959 100.211L10.9995 100.869L9.38514 101.731L9.37146 101.718Z" fill="url(#paint25_linear_746_48279)"/>
<path d="M4.80201 84.338L5.77336 85.598L8.35907 88.1043L10.1102 89.2136L12.0803 89.9121L14.1598 90.0217L16.1162 89.6656L19.2765 88.3371L20.5625 87.5428L19.3039 85.7486L17.7305 84.2832L15.8973 83.1602L13.8451 82.4206L11.4646 82.1741L9.11152 82.4343L6.86784 83.1602L4.78833 84.338H4.80201Z" fill="#E8F1F8"/>
<path d="M4.80201 84.338L5.77336 85.598L8.35907 88.1043L10.1102 89.2136L12.0803 89.9121L14.1598 90.0217L16.1162 89.6656L19.2765 88.3371L20.5625 87.5428L19.3039 85.7486L17.7305 84.2832L15.8973 83.1602L13.8451 82.4206L11.4646 82.1741L9.11152 82.4343L6.86784 83.1602L4.78833 84.338H4.80201Z" fill="url(#paint26_linear_746_48279)"/>
<path d="M27.3756 86.7209L26.2948 87.9125L24.3247 90.8707L23.5996 92.7333L23.3671 94.6918L23.7638 96.5818L24.6257 98.2801L25.7476 99.7592L26.7736 100.814L27.9228 101.786L29.4277 100.266L30.5496 98.5129L31.2884 96.5407L31.5893 94.4316L31.302 92.1855L30.5496 90.3366L29.4688 88.7479L28.4838 87.6796L27.3756 86.7346V86.7209Z" fill="#E1E6EF"/>
<path d="M27.3756 86.7209L26.2948 87.9125L24.3247 90.8707L23.5996 92.7333L23.3671 94.6918L23.7638 96.5818L24.6257 98.2801L25.7476 99.7592L26.7736 100.814L27.9228 101.786L29.4277 100.266L30.5496 98.5129L31.2884 96.5407L31.5893 94.4316L31.302 92.1855L30.5496 90.3366L29.4688 88.7479L28.4838 87.6796L27.3756 86.7346V86.7209Z" fill="url(#paint27_linear_746_48279)"/>
<path d="M26.7736 70.0669L25.255 70.7106L22.1084 72.5869L20.6035 73.9839L19.4953 75.641L18.9755 77.531V79.3936L19.3038 81.1878L19.7553 82.5436L20.3436 83.8721L22.382 83.1188L24.2153 81.9821L25.7886 80.503L27.0472 78.7089L27.745 76.5723L27.9228 74.3536L27.6082 72.1623L26.7736 70.0669Z" fill="url(#paint28_linear_746_48279)"/>
<path d="M26.4179 70.2039L24.3795 71.1489L21.6296 72.9841L20.3983 74.2167L19.4954 75.6547L19.0165 77.2571L18.9344 78.8595L19.4817 81.7767L20.2068 83.6119L23.1482 76.8326L26.4179 70.2039Z" fill="url(#paint29_linear_746_48279)" fill-opacity="0.305"/>
<path d="M0.232544 63.3149L0.465121 64.6297L1.42279 67.5058L2.31205 68.9849L3.54334 70.2312L5.10297 71.0667L6.77205 71.4912L9.76819 71.6008L11.0952 71.4502L0.232544 63.3149Z" fill="url(#paint30_linear_746_48279)" fill-opacity="0.305"/>
<path d="M4.80176 123.22H84.9998L84.6858 121.152L83.8946 119.577L82.6137 118.385L80.7048 117.536L77.9419 117.111L74.0488 117.303L74.1116 115.413L73.7097 113.756L72.8432 112.249L70.9469 110.401L68.385 108.99L65.5217 108.168L62.5579 107.949L59.6694 108.415L57.2331 109.579L55.7512 107.497L54.1312 106.032L52.3605 105.1L49.4595 104.416L46.5836 104.552L43.871 105.347L41.7612 106.538L40.6058 107.607L39.9779 108.606L39.7518 109.579L37.8806 108.1L35.6829 107.264L33.3345 107.031L30.9986 107.333L28.8134 108.141L27.0553 109.332L25.7743 110.935L25.1966 112.797L22.6975 111.893L20.55 111.524L18.6914 111.619L16.1169 112.469L14.2834 113.838L13.0526 115.673L12.6508 117.509L9.44837 117.741L7.30088 118.495L5.91946 119.631L5.0906 121.165L4.80176 123.22Z" fill="url(#paint31_linear_746_48279)"/>
<path d="M175.258 120.673L175.49 119.317L176.12 118.125L177.173 117.057L179.184 115.989L181.784 115.564L181.948 115.578L182.933 113.578L184.739 111.921L187.078 110.866L189.951 110.469L192.099 110.702L194.137 111.401L195.588 109.867L197.325 108.757L199.268 108.086L201.375 107.908L204.234 108.319L206.573 109.374L208.379 111.017L209.364 113.03L209.529 113.017L211.786 113.263L213.688 113.893L215.302 114.879L216.615 116.208L217.395 117.701L217.696 119.385L217.313 120.864L216.26 122.097L214.741 122.905L212.798 123.22H178.514L177.351 123.11L176.366 122.604L175.641 121.768L175.258 120.673Z" fill="url(#paint32_linear_746_48279)"/>
</g>
<defs>
<filter id="filter0_d_746_48279" x="86.8744" y="33.7078" width="49.4667" height="49.8834" filterUnits="userSpaceOnUse" color-interpolation-filters="sRGB">
<feFlood flood-opacity="0" result="BackgroundImageFix"/>
<feColorMatrix in="SourceAlpha" type="matrix" values="0 0 0 0 0 0 0 0 0 0 0 0 0 0 0 0 0 0 127 0" result="hardAlpha"/>
<feOffset dy="1"/>
<feGaussianBlur stdDeviation="0.3"/>
<feComposite in2="hardAlpha" operator="out"/>
<feColorMatrix type="matrix" values="0 0 0 0 0 0 0 0 0 0 0 0 0 0 0 0 0 0 0.13 0"/>
<feBlend mode="normal" in2="BackgroundImageFix" result="effect1_dropShadow_746_48279"/>
<feBlend mode="normal" in="SourceGraphic" in2="effect1_dropShadow_746_48279" result="shape"/>
</filter>
<linearGradient id="paint0_linear_746_48279" x1="106.778" y1="98.4871" x2="106.778" y2="15.4502" gradientUnits="userSpaceOnUse">
<stop stop-color="#070707"/>
<stop offset="1" stop-color="#36393E"/>
</linearGradient>
<linearGradient id="paint1_linear_746_48279" x1="110.11" y1="90.4614" x2="110.11" y2="14.7659" gradientUnits="userSpaceOnUse">
<stop stop-color="#202123"/>
<stop offset="1" stop-color="#606670"/>
</linearGradient>
<linearGradient id="paint2_linear_746_48279" x1="111.347" y1="23.873" x2="111.347" y2="92.7896" gradientUnits="userSpaceOnUse">
<stop stop-color="white"/>
<stop offset="1" stop-color="#B4B9C8"/>
</linearGradient>
<linearGradient id="paint3_linear_746_48279" x1="110.31" y1="10.6157" x2="110.31" y2="20.2778" gradientUnits="userSpaceOnUse">
<stop stop-color="white"/>
<stop offset="1" stop-color="#D3D9DE"/>
</linearGradient>
<linearGradient id="paint4_linear_746_48279" x1="108.908" y1="110" x2="108.908" y2="126.466" gradientUnits="userSpaceOnUse">
<stop stop-color="#CED2DD"/>
<stop offset="0.6" stop-color="#F4F6FA" stop-opacity="0.42"/>
<stop offset="1" stop-color="white" stop-opacity="0"/>
</linearGradient>
<linearGradient id="paint5_linear_746_48279" x1="170.417" y1="75.0048" x2="180.005" y2="99.1323" gradientUnits="userSpaceOnUse">
<stop stop-color="#EBEFF8"/>
<stop offset="1" stop-color="#DADDE4"/>
</linearGradient>
<linearGradient id="paint6_linear_746_48279" x1="180.928" y1="107.646" x2="187.273" y2="101.721" gradientUnits="userSpaceOnUse">
<stop stop-color="#DEE0E7"/>
<stop offset="1" stop-color="#BBC0CD"/>
</linearGradient>
<linearGradient id="paint7_linear_746_48279" x1="171.403" y1="94.628" x2="178.315" y2="110.624" gradientUnits="userSpaceOnUse">
<stop stop-color="#EBEFF8"/>
<stop offset="1" stop-color="#DADDE4"/>
</linearGradient>
<linearGradient id="paint8_linear_746_48279" x1="163.387" y1="93.9088" x2="164.35" y2="97.9313" gradientUnits="userSpaceOnUse">
<stop stop-color="#EBEFF8"/>
<stop offset="1" stop-color="#DADDE4"/>
</linearGradient>
<linearGradient id="paint9_linear_746_48279" x1="173.98" y1="98.3278" x2="178.117" y2="102.931" gradientUnits="userSpaceOnUse">
<stop stop-color="#EBEFF8"/>
<stop offset="1" stop-color="#DADDE4"/>
</linearGradient>
<linearGradient id="paint10_linear_746_48279" x1="171.237" y1="87.2986" x2="174.908" y2="92.1492" gradientUnits="userSpaceOnUse">
<stop stop-color="#EBEFF8"/>
<stop offset="1" stop-color="#DADDE4"/>
</linearGradient>
<linearGradient id="paint11_linear_746_48279" x1="180.493" y1="96.3913" x2="183.672" y2="100.788" gradientUnits="userSpaceOnUse">
<stop stop-color="#EBEFF8"/>
<stop offset="1" stop-color="#DADDE4"/>
</linearGradient>
<linearGradient id="paint12_linear_746_48279" x1="185.461" y1="80.5993" x2="186.444" y2="83.5673" gradientUnits="userSpaceOnUse">
<stop stop-color="#DCDEE5"/>
<stop offset="1" stop-color="#D4D7DF"/>
</linearGradient>
<linearGradient id="paint13_linear_746_48279" x1="187.602" y1="72.6046" x2="190.299" y2="75.6409" gradientUnits="userSpaceOnUse">
<stop stop-color="#DCDEE5"/>
<stop offset="1" stop-color="#D4D7DF"/>
</linearGradient>
<linearGradient id="paint14_linear_746_48279" x1="170.952" y1="85.1393" x2="174.207" y2="88.246" gradientUnits="userSpaceOnUse">
<stop stop-color="#DCDEE5"/>
<stop offset="1" stop-color="#D4D7DF"/>
</linearGradient>
<linearGradient id="paint15_linear_746_48279" x1="159.373" y1="80.4384" x2="160.836" y2="83.7813" gradientUnits="userSpaceOnUse">
<stop stop-color="#DCDEE5"/>
<stop offset="1" stop-color="#D4D7DF"/>
</linearGradient>
<linearGradient id="paint16_linear_746_48279" x1="169.247" y1="122.157" x2="169.247" y2="111.921" gradientUnits="userSpaceOnUse">
<stop stop-color="#EDEFF3"/>
<stop offset="1" stop-color="#DFE1E7"/>
</linearGradient>
<linearGradient id="paint17_linear_746_48279" x1="49.9404" y1="81.9751" x2="43.0399" y2="90.5264" gradientUnits="userSpaceOnUse">
<stop stop-color="#F1F2F7"/>
<stop offset="1" stop-color="#D9DCE7"/>
</linearGradient>
<linearGradient id="paint18_linear_746_48279" x1="40.9283" y1="105.602" x2="40.0358" y2="109.424" gradientUnits="userSpaceOnUse">
<stop stop-color="#F1F2F7"/>
<stop offset="1" stop-color="#D9DCE7"/>
</linearGradient>
<linearGradient id="paint19_linear_746_48279" x1="46.3488" y1="97.742" x2="45.6207" y2="100.854" gradientUnits="userSpaceOnUse">
<stop stop-color="#F1F2F7"/>
<stop offset="1" stop-color="#D9DCE7"/>
</linearGradient>
<linearGradient id="paint20_linear_746_48279" x1="37.1874" y1="99.0999" x2="34.1863" y2="102.744" gradientUnits="userSpaceOnUse">
<stop stop-color="#F1F2F7"/>
<stop offset="1" stop-color="#D9DCE7"/>
</linearGradient>
<linearGradient id="paint21_linear_746_48279" x1="41.7785" y1="91.2714" x2="38.6064" y2="94.8" gradientUnits="userSpaceOnUse">
<stop stop-color="#F1F2F7"/>
<stop offset="1" stop-color="#D9DCE7"/>
</linearGradient>
<linearGradient id="paint22_linear_746_48279" x1="42.2888" y1="89.5069" x2="39.8854" y2="90.947" gradientUnits="userSpaceOnUse">
<stop stop-color="#E4E6EB"/>
<stop offset="1" stop-color="#CBCFD9"/>
</linearGradient>
<linearGradient id="paint23_linear_746_48279" x1="52.2205" y1="89.3012" x2="51.6355" y2="91.4302" gradientUnits="userSpaceOnUse">
<stop stop-color="#E4E6EB"/>
<stop offset="1" stop-color="#CBCFD9"/>
</linearGradient>
<linearGradient id="paint24_linear_746_48279" x1="7.23842" y1="49.4324" x2="20.0624" y2="67.375" gradientUnits="userSpaceOnUse">
<stop stop-color="#E5E8F1"/>
<stop offset="1" stop-color="#DBDEE7"/>
</linearGradient>
<linearGradient id="paint25_linear_746_48279" x1="15.6078" y1="102.715" x2="17.603" y2="110.539" gradientUnits="userSpaceOnUse">
<stop stop-color="#E5E8F1"/>
<stop offset="1" stop-color="#DBDEE7"/>
</linearGradient>
<linearGradient id="paint26_linear_746_48279" x1="9.94648" y1="84.701" x2="11.4693" y2="90.9331" gradientUnits="userSpaceOnUse">
<stop stop-color="#E5E8F1"/>
<stop offset="1" stop-color="#DBDEE7"/>
</linearGradient>
<linearGradient id="paint27_linear_746_48279" x1="26.0557" y1="91.5719" x2="32.3597" y2="98.5771" gradientUnits="userSpaceOnUse">
<stop stop-color="#E5E8F1"/>
<stop offset="1" stop-color="#DBDEE7"/>
</linearGradient>
<linearGradient id="paint28_linear_746_48279" x1="21.9013" y1="74.5122" x2="27.4937" y2="81.8919" gradientUnits="userSpaceOnUse">
<stop stop-color="#E5E8F1"/>
<stop offset="1" stop-color="#DBDEE7"/>
</linearGradient>
<linearGradient id="paint29_linear_746_48279" x1="21.4115" y1="71.2363" x2="26.369" y2="76.0116" gradientUnits="userSpaceOnUse">
<stop stop-color="#DADDE4"/>
<stop offset="1" stop-color="#AEB3C1"/>
</linearGradient>
<linearGradient id="paint30_linear_746_48279" x1="3.8281" y1="63.953" x2="6.0952" y2="69.0825" gradientUnits="userSpaceOnUse">
<stop stop-color="#DADDE4"/>
<stop offset="1" stop-color="#AEB3C1"/>
</linearGradient>
<linearGradient id="paint31_linear_746_48279" x1="43.6978" y1="124.48" x2="43.0953" y2="101.886" gradientUnits="userSpaceOnUse">
<stop stop-color="#F7F9FD"/>
<stop offset="1" stop-color="#D6D8DF"/>
</linearGradient>
<linearGradient id="paint32_linear_746_48279" x1="212.853" y1="124.786" x2="212.225" y2="90.7747" gradientUnits="userSpaceOnUse">
<stop offset="0.0911777" stop-color="#F4F6FA"/>
<stop offset="0.33" stop-color="#DCE3EC"/>
<stop offset="1" stop-color="#DFE1E8"/>
</linearGradient>
<clipPath id="clip0_746_48279">
<rect width="218" height="126" fill="white"/>
</clipPath>
</defs>
</svg>
