<svg width="12" height="12" viewBox="0 0 12 12" fill="none">
  <path opacity="0.5" d="M5.99741 6.60914L3.72695 8.87959C3.64605 8.95773 3.5377 9.00097 3.42523 8.99999C3.31276 8.99901 3.20517 8.9539 3.12564 8.87437C3.04611 8.79484 3.00099 8.68725 3.00002 8.57478C2.99904 8.46231 3.04228 8.35395 3.12041 8.27305L5.69414 5.69932C5.77458 5.61891 5.88367 5.57373 5.99741 5.57373C6.11116 5.57373 6.22024 5.61891 6.30068 5.69932L8.87441 8.27305C8.95255 8.35395 8.99578 8.46231 8.99481 8.57478C8.99383 8.68725 8.94872 8.79484 8.86918 8.87437C8.78965 8.9539 8.68207 8.99901 8.5696 8.99999C8.45713 9.00097 8.34877 8.95773 8.26787 8.87959L5.99741 6.60914Z" fill="#1FCC0C"/>
  <path d="M5.69414 3.12559C5.77458 3.04518 5.88367 3 5.99741 3C6.11116 3 6.22024 3.04518 6.30068 3.12559L8.87441 5.69932C8.95255 5.78022 8.99578 5.88858 8.99481 6.00105C8.99383 6.11352 8.94872 6.2211 8.86918 6.30064C8.78965 6.38017 8.68207 6.42528 8.5696 6.42626C8.45713 6.42724 8.34877 6.384 8.26787 6.30586L5.99741 4.0354L3.72695 6.30586C3.64605 6.384 3.5377 6.42724 3.42523 6.42626C3.31276 6.42528 3.20517 6.38017 3.12564 6.30064C3.04611 6.2211 3.00099 6.11352 3.00002 6.00105C2.99904 5.88858 3.04228 5.78022 3.12041 5.69932L5.69414 3.12559Z" fill="#1FCC0C"/>
</svg>