<svg width="116" height="98" viewBox="0 0 116 98" fill="none" xmlns="http://www.w3.org/2000/svg">
<g id="&#231;&#189;&#145;&#231;&#187;&#156;&#228;&#184;&#141;&#231;&#187;&#153;&#229;&#138;&#155;">
<g id="Group 1556236836">
<path id="Ellipse 1752" d="M116 64.853C116 78.384 90.0325 89.353 58 89.353C25.9675 89.353 0 78.384 0 64.853C0 51.3221 25.9675 40.353 58 40.353C90.0325 40.353 116 51.3221 116 64.853Z" fill="url(#paint0_linear_2790_42678)"/>
<path id="Ellipse 1751" d="M83.375 86.4706C83.375 88.4605 72.0142 90.0736 58 90.0736C43.9858 90.0736 32.625 88.4605 32.625 86.4706C32.625 84.4808 43.9858 82.8677 58 82.8677C72.0142 82.8677 83.375 84.4808 83.375 86.4706Z" fill="#B7BBC6"/>
<path id="Ellipse 1753 (Stroke)" fill-rule="evenodd" clip-rule="evenodd" d="M100.05 65.2132C101.051 65.2132 101.862 64.4067 101.862 63.4118C101.862 62.4169 101.051 61.6103 100.05 61.6103C99.0488 61.6103 98.2373 62.4169 98.2373 63.4118C98.2373 64.4067 99.0488 65.2132 100.05 65.2132ZM100.05 67.0147C102.052 67.0147 103.675 65.4016 103.675 63.4118C103.675 61.4219 102.052 59.8088 100.05 59.8088C98.0478 59.8088 96.4248 61.4219 96.4248 63.4118C96.4248 65.4016 98.0478 67.0147 100.05 67.0147Z" fill="#88B6FB"/>
<path id="Ellipse 1754 (Stroke)" fill-rule="evenodd" clip-rule="evenodd" d="M12.3252 19.8163C13.3262 19.8163 14.1377 19.0097 14.1377 18.0148C14.1377 17.0199 13.3262 16.2133 12.3252 16.2133C11.3242 16.2133 10.5127 17.0199 10.5127 18.0148C10.5127 19.0097 11.3242 19.8163 12.3252 19.8163ZM12.3252 21.6177C14.3272 21.6177 15.9502 20.0047 15.9502 18.0148C15.9502 16.025 14.3272 14.4119 12.3252 14.4119C10.3232 14.4119 8.7002 16.025 8.7002 18.0148C8.7002 20.0047 10.3232 21.6177 12.3252 21.6177Z" fill="#88B6FB"/>
<path id="Vector" d="M18.4537 56.5325V54.4967C18.4537 54.2469 18.6576 54.0442 18.909 54.0442C19.1603 54.0442 19.3642 54.2469 19.3642 54.4967V56.5325H21.4125C21.6638 56.5325 21.8677 56.7351 21.8677 56.9849C21.8677 57.2348 21.6638 57.4374 21.4125 57.4374H19.3642V59.4732C19.3642 59.723 19.1603 59.9257 18.909 59.9257C18.6576 59.9257 18.4537 59.723 18.4537 59.4732V57.4374H16.4054C16.1541 57.4374 15.9502 57.2348 15.9502 56.9849C15.9502 56.7351 16.1541 56.5325 16.4054 56.5325H18.4537Z" fill="#88B6FB"/>
<path id="Vector_2" d="M95.7836 36.8331V35.586C95.7836 35.433 95.9085 35.3088 96.0625 35.3088C96.2165 35.3088 96.3414 35.433 96.3414 35.586V36.8331H97.5961C97.7501 36.8331 97.875 36.9573 97.875 37.1103C97.875 37.2633 97.7501 37.3875 97.5961 37.3875H96.3414V38.6346C96.3414 38.7876 96.2165 38.9118 96.0625 38.9118C95.9085 38.9118 95.7836 38.7876 95.7836 38.6346V37.3875H94.5289C94.3749 37.3875 94.25 37.2633 94.25 37.1103C94.25 36.9573 94.3749 36.8331 94.5289 36.8331H95.7836Z" fill="#88B6FB"/>
<path id="Vector_3" d="M64.6088 1.52429V0.277182C64.6088 0.12415 64.7337 0 64.8877 0C65.0417 0 65.1666 0.12415 65.1666 0.277182V1.52429H66.4213C66.5753 1.52429 66.7002 1.64844 66.7002 1.80147C66.7002 1.9545 66.5753 2.07865 66.4213 2.07865H65.1666V3.32576C65.1666 3.47879 65.0417 3.60294 64.8877 3.60294C64.7337 3.60294 64.6088 3.47879 64.6088 3.32576V2.07865H63.3541C63.2001 2.07865 63.0752 1.9545 63.0752 1.80147C63.0752 1.64844 63.2001 1.52429 63.3541 1.52429H64.6088Z" fill="#88B6FB"/>
</g>
<g id="Vector_4">
<path d="M39.5179 9.57021C40.1774 13.6498 42.0544 19.2655 44.4785 20.9056C46.3043 22.1398 47.9168 22.6144 51.8045 23.172L52.1797 23.2251L52.3733 23.251L52.4759 23.2654C55.8346 23.7413 56.7275 24.0973 57 24.6129L57.0275 24.6657C57.9214 26.4162 59.3471 32.3678 60.091 37.7821L60.1544 38.2508C60.2453 38.9252 60.3319 39.6429 60.4597 40.7606L60.7531 43.3657L60.8303 44.0401C61.3022 48.1091 61.6624 50.1218 62.2762 51.6526L62.3161 51.7507C63.2642 54.0433 64.9361 55.1552 67.3538 55.1552C71.27 55.1552 73.389 53.2137 74.781 49.0372L75.087 48.0958L75.1569 47.8857C75.2285 47.6734 75.3027 47.462 75.3794 47.2514L75.4483 47.0617C75.5955 46.6671 75.7662 46.2815 75.9595 45.907L76.0381 45.7575L76.0937 45.6586C76.2558 45.3738 76.4205 45.1224 76.5973 44.8901C81.3987 38.5979 84.6768 32.1182 84.6768 28.0542C84.6768 26.7554 84.1636 20.5599 83.5664 16.4147C88.4267 22.2217 91.3498 29.6869 91.3498 37.8308C91.3498 56.3365 76.2562 71.3382 57.6373 71.3382C56.2515 71.3385 54.8669 71.2547 53.4914 71.0873L53.4918 71.0863C54.5635 68.2754 55.3738 63.8331 54.9374 61.3803C54.4308 58.5428 52.9911 56.6843 50.0819 54.7314L50.0021 54.6778L48.7221 53.8356L48.5679 53.7358C48.2018 53.4977 47.8444 53.2466 47.4963 52.9831C46.7789 52.4381 46.214 51.8942 45.7179 51.2711C45.0578 50.4348 44.9293 50.0977 44.9036 48.7359L44.8971 48.2399C44.885 47.4191 44.8612 46.9853 44.7939 46.4612L44.7788 46.3475C44.4962 44.3626 43.6442 42.6831 42.139 41.1607C38.9731 37.9588 31.0769 38.6868 24.0754 41.0108L24.0746 41.011C23.9746 39.9539 23.9246 38.8926 23.9248 37.8308C23.9248 25.9872 30.1072 15.5788 39.4393 9.61967L39.5179 9.57021ZM24.8567 45.4675C30.495 43.4892 37.1997 42.5391 38.9329 44.2921C39.7734 45.1422 40.1822 45.9478 40.3264 46.9611C40.3727 47.2996 40.3903 47.5667 40.4008 48.1888L40.4059 48.5775C40.4378 51.0501 40.8274 52.3133 42.1872 54.0362C42.9284 54.9669 43.7613 55.769 44.7727 56.5372L44.9035 56.6352C45.2926 56.9256 45.691 57.2036 46.0981 57.4686L46.2148 57.5443L46.2691 57.5806L47.4375 58.3478L47.6457 58.4874C49.5698 59.7917 50.2478 60.6835 50.5114 62.1596C50.8481 64.0521 49.8379 68.5044 48.9778 70.2223C37.0004 67.0676 27.6388 57.5243 24.8083 45.4848L24.8567 45.4675ZM57.6373 4.32349C65.0683 4.32349 71.9379 6.71315 77.5104 10.7615C77.526 11.0942 77.597 11.4412 77.7116 11.8385C77.8255 12.2333 77.9996 12.7384 78.3108 13.5802L78.6124 14.3885C79.306 16.2471 80.1818 26.8371 80.1818 28.0543C80.1818 30.8539 77.2613 36.6267 73.0143 42.1924C72.6757 42.6373 72.3741 43.1063 72.0904 43.6212L71.9896 43.811C71.6929 44.3798 71.433 44.9669 71.2115 45.5685L71.0649 45.975C70.9774 46.2212 70.893 46.4684 70.8116 46.7166L70.5088 47.648L70.4315 47.8762C69.6389 50.1767 69.0289 50.6876 67.3538 50.6876H67.3149C66.7941 50.6865 66.7297 50.6588 66.5218 50.1676L66.4736 50.0522C66.0378 48.9985 65.71 47.1428 65.2621 43.2364L64.9263 40.2598L64.7963 39.1412C64.7427 38.6907 64.6953 38.3082 64.6482 37.9479L64.567 37.342C63.7579 31.3495 62.1913 24.8184 60.9774 22.5315C60.3322 21.3111 59.334 20.4756 57.899 19.9101C56.7976 19.4761 55.3987 19.1716 53.2391 18.861L52.9866 18.8252L52.7917 18.799L52.573 18.7683C49.2322 18.2948 48.1429 17.9798 47.0072 17.212L46.9333 17.1613C45.3091 16.0321 43.9306 9.93703 43.7716 7.2808L43.7711 7.2799C48.0005 5.3807 52.6947 4.32349 57.6373 4.32349Z" fill="#333333"/>
<path d="M39.5179 9.57021C40.1774 13.6498 42.0544 19.2655 44.4785 20.9056C46.3043 22.1398 47.9168 22.6144 51.8045 23.172L52.1797 23.2251L52.3733 23.251L52.4759 23.2654C55.8346 23.7413 56.7275 24.0973 57 24.6129L57.0275 24.6657C57.9214 26.4162 59.3471 32.3678 60.091 37.7821L60.1544 38.2508C60.2453 38.9252 60.3319 39.6429 60.4597 40.7606L60.7531 43.3657L60.8303 44.0401C61.3022 48.1091 61.6624 50.1218 62.2762 51.6526L62.3161 51.7507C63.2642 54.0433 64.9361 55.1552 67.3538 55.1552C71.27 55.1552 73.389 53.2137 74.781 49.0372L75.087 48.0958L75.1569 47.8857C75.2285 47.6734 75.3027 47.462 75.3794 47.2514L75.4483 47.0617C75.5955 46.6671 75.7662 46.2815 75.9595 45.907L76.0381 45.7575L76.0937 45.6586C76.2558 45.3738 76.4205 45.1224 76.5973 44.8901C81.3987 38.5979 84.6768 32.1182 84.6768 28.0542C84.6768 26.7554 84.1636 20.5599 83.5664 16.4147C88.4267 22.2217 91.3498 29.6869 91.3498 37.8308C91.3498 56.3365 76.2562 71.3382 57.6373 71.3382C56.2515 71.3385 54.8669 71.2547 53.4914 71.0873L53.4918 71.0863C54.5635 68.2754 55.3738 63.8331 54.9374 61.3803C54.4308 58.5428 52.9911 56.6843 50.0819 54.7314L50.0021 54.6778L48.7221 53.8356L48.5679 53.7358C48.2018 53.4977 47.8444 53.2466 47.4963 52.9831C46.7789 52.4381 46.214 51.8942 45.7179 51.2711C45.0578 50.4348 44.9293 50.0977 44.9036 48.7359L44.8971 48.2399C44.885 47.4191 44.8612 46.9853 44.7939 46.4612L44.7788 46.3475C44.4962 44.3626 43.6442 42.6831 42.139 41.1607C38.9731 37.9588 31.0769 38.6868 24.0754 41.0108L24.0746 41.011C23.9746 39.9539 23.9246 38.8926 23.9248 37.8308C23.9248 25.9872 30.1072 15.5788 39.4393 9.61967L39.5179 9.57021ZM24.8567 45.4675C30.495 43.4892 37.1997 42.5391 38.9329 44.2921C39.7734 45.1422 40.1822 45.9478 40.3264 46.9611C40.3727 47.2996 40.3903 47.5667 40.4008 48.1888L40.4059 48.5775C40.4378 51.0501 40.8274 52.3133 42.1872 54.0362C42.9284 54.9669 43.7613 55.769 44.7727 56.5372L44.9035 56.6352C45.2926 56.9256 45.691 57.2036 46.0981 57.4686L46.2148 57.5443L46.2691 57.5806L47.4375 58.3478L47.6457 58.4874C49.5698 59.7917 50.2478 60.6835 50.5114 62.1596C50.8481 64.0521 49.8379 68.5044 48.9778 70.2223C37.0004 67.0676 27.6388 57.5243 24.8083 45.4848L24.8567 45.4675ZM57.6373 4.32349C65.0683 4.32349 71.9379 6.71315 77.5104 10.7615C77.526 11.0942 77.597 11.4412 77.7116 11.8385C77.8255 12.2333 77.9996 12.7384 78.3108 13.5802L78.6124 14.3885C79.306 16.2471 80.1818 26.8371 80.1818 28.0543C80.1818 30.8539 77.2613 36.6267 73.0143 42.1924C72.6757 42.6373 72.3741 43.1063 72.0904 43.6212L71.9896 43.811C71.6929 44.3798 71.433 44.9669 71.2115 45.5685L71.0649 45.975C70.9774 46.2212 70.893 46.4684 70.8116 46.7166L70.5088 47.648L70.4315 47.8762C69.6389 50.1767 69.0289 50.6876 67.3538 50.6876H67.3149C66.7941 50.6865 66.7297 50.6588 66.5218 50.1676L66.4736 50.0522C66.0378 48.9985 65.71 47.1428 65.2621 43.2364L64.9263 40.2598L64.7963 39.1412C64.7427 38.6907 64.6953 38.3082 64.6482 37.9479L64.567 37.342C63.7579 31.3495 62.1913 24.8184 60.9774 22.5315C60.3322 21.3111 59.334 20.4756 57.899 19.9101C56.7976 19.4761 55.3987 19.1716 53.2391 18.861L52.9866 18.8252L52.7917 18.799L52.573 18.7683C49.2322 18.2948 48.1429 17.9798 47.0072 17.212L46.9333 17.1613C45.3091 16.0321 43.9306 9.93703 43.7716 7.2808L43.7711 7.2799C48.0005 5.3807 52.6947 4.32349 57.6373 4.32349Z" fill="url(#paint1_linear_2790_42678)"/>
</g>
</g>
<defs>
<linearGradient id="paint0_linear_2790_42678" x1="58" y1="40.353" x2="58" y2="77.3879" gradientUnits="userSpaceOnUse">
<stop stop-color="#CADBFF"/>
<stop offset="1" stop-color="#DAE7FF" stop-opacity="0"/>
</linearGradient>
<linearGradient id="paint1_linear_2790_42678" x1="57.6373" y1="4.32349" x2="57.6373" y2="71.3382" gradientUnits="userSpaceOnUse">
<stop stop-color="#B3CCF9"/>
<stop offset="1" stop-color="#88B8FF"/>
</linearGradient>
</defs>
</svg>
