<svg width="12" height="12" viewBox="0 0 12 12" fill="none" xmlns="http://www.w3.org/2000/svg">
<path d="M6 12C2.6864 12 0 9.3136 0 6C0 2.6864 2.6864 0 6 0C9.3136 0 12 2.6864 12 6C12 9.3136 9.3136 12 6 12ZM5.6 2.8V7.2C5.6 7.30609 5.64214 7.40783 5.71716 7.48284C5.79217 7.55786 5.89391 7.6 6 7.6C6.10609 7.6 6.20783 7.55786 6.28284 7.48284C6.35786 7.40783 6.4 7.30609 6.4 7.2V2.8C6.4 2.69391 6.35786 2.59217 6.28284 2.51716C6.20783 2.44214 6.10609 2.4 6 2.4C5.89391 2.4 5.79217 2.44214 5.71716 2.51716C5.64214 2.59217 5.6 2.69391 5.6 2.8ZM5.4 9.4C5.4 9.55913 5.46321 9.71174 5.57574 9.82426C5.68826 9.93679 5.84087 10 6 10C6.15913 10 6.31174 9.93679 6.42426 9.82426C6.53679 9.71174 6.6 9.55913 6.6 9.4C6.6 9.24087 6.53679 9.08826 6.42426 8.97574C6.31174 8.86321 6.15913 8.8 6 8.8C5.84087 8.8 5.68826 8.86321 5.57574 8.97574C5.46321 9.08826 5.4 9.24087 5.4 9.4Z" fill="#EF6475"/>
</svg>
