<svg width="136" height="136" viewBox="0 0 136 136" fill="none" xmlns="http://www.w3.org/2000/svg">
<g id="&#231;&#188;&#186;&#231;&#156;&#129;">
<circle id="Ellipse 1784" opacity="0.04" cx="68" cy="68" r="68" fill="#3586FF"/>
<circle id="Ellipse 1785" opacity="0.08" cx="68" cy="68" r="52" fill="#3586FF"/>
<g id="Group 1556236861">
<g id="&#232;&#183;&#175;&#229;&#190;&#132;_8758" filter="url(#filter0_d_985_28213)">
<path d="M87.3534 100.3H44.1622C41.7308 100.302 39.3989 99.3364 37.6802 97.6178C35.9615 95.8991 34.9982 93.5672 35 91.1376V37.476C34.9982 35.0446 35.9615 32.7127 37.6802 30.994C39.3989 29.2753 41.7308 28.312 44.1622 28.3138H52.921C49.4996 28.3493 46.75 31.1451 46.7713 34.5665C46.7909 37.9896 49.5742 40.7516 52.9956 40.7481H53.2142C56.648 40.7676 59.4474 38.0003 59.4687 34.5683C59.4882 31.1344 56.7227 28.3333 53.2889 28.3138H78.4436C75.0222 28.3493 72.2727 31.1451 72.2922 34.5665C72.3136 37.9896 75.0951 40.7516 78.5183 40.7481H78.7351C80.9568 40.7605 83.0167 39.5875 84.1382 37.6715C85.2615 35.7537 85.2757 33.3845 84.1756 31.4543C83.0772 29.5242 81.0314 28.3262 78.8115 28.3138H87.3534C89.7831 28.312 92.115 29.2753 93.8336 30.994C95.5523 32.7127 96.5174 35.0446 96.5156 37.476V91.1376C96.5174 93.5672 95.5523 95.8991 93.8336 97.6178C92.115 99.3364 89.7831 100.302 87.3534 100.3Z" fill="url(#paint0_linear_985_28213)"/>
<path d="M87.3534 100.125H87.3536C89.7367 100.127 92.024 99.1799 93.7099 97.494C95.3958 95.8082 96.3424 93.5208 96.3406 91.1377V91.1376V37.476V37.4759C96.3424 35.0909 95.3957 32.8036 93.7099 31.1178C92.0241 29.432 89.7368 28.487 87.3536 28.4888L87.3534 28.4888L80.8616 28.4888C82.3064 28.9883 83.5487 29.9989 84.3276 31.3677C85.4588 33.3523 85.4441 35.7882 84.2892 37.7599C83.1362 39.7297 81.0186 40.9357 78.7346 40.9231H78.5184H78.5183V40.7481C75.0951 40.7516 72.3136 37.9896 72.2922 34.5665L87.3534 100.125ZM87.3534 100.125H44.1622H44.1621C41.7771 100.127 39.4898 99.1798 37.804 97.494C36.1182 95.8082 35.1733 93.5209 35.175 91.1377V91.1376L35.175 37.476L35.175 37.4759C35.1733 35.0908 36.1182 32.8035 37.804 31.1178C39.4898 29.432 41.777 28.487 44.1621 28.4888H44.1622H50.894L87.3534 100.125ZM55.3446 28.4888C57.8606 29.3599 59.6597 31.7585 59.6437 34.5693V34.5693C59.6218 38.0978 56.7439 40.9429 53.2137 40.9231H52.9958H52.9956V40.7481C49.5742 40.7516 46.7909 37.9896 46.7713 34.5665L55.3446 28.4888ZM55.3446 28.4888H76.4166H55.3446ZM44.1622 100.3H87.3534C89.7831 100.302 92.115 99.3364 93.8336 97.6178C95.5523 95.8991 96.5174 93.5672 96.5156 91.1376L44.1622 100.3ZM44.1622 100.3C41.7308 100.302 39.3989 99.3364 37.6802 97.6178C35.9615 95.8991 34.9982 93.5672 35 91.1376V37.476M44.1622 100.3L35 37.476M35 37.476C34.9982 35.0446 35.9615 32.7127 37.6802 30.994C39.3989 29.2753 41.7308 28.312 44.1622 28.3138L35 37.476Z" stroke="url(#paint1_linear_985_28213)" stroke-width="0.35"/>
</g>
<path id="&#230;&#164;&#173;&#229;&#156;&#134;&#229;&#189;&#162;" fill-rule="evenodd" clip-rule="evenodd" d="M59.5416 35.9688L59.506 36.6389L59.4083 37.2769L59.2519 37.8901L59.035 38.4784L58.6582 39.2267L58.1997 39.9074L57.654 40.5277L57.0338 41.0734L56.353 41.5319L55.6048 41.9087L55.0165 42.1255L54.4033 42.2819L53.7652 42.3797L53.0952 42.4152L52.4269 42.3797L51.787 42.2819L51.1756 42.1255L50.5873 41.9087L49.8391 41.5319L49.1583 41.0734L48.5381 40.5277L47.9924 39.9074L47.5321 39.2267L47.1571 38.4784L46.9402 37.8901L46.782 37.2769L46.6861 36.6389L46.6505 35.9688L46.6861 35.3005L46.782 34.6607L46.9402 34.0493L47.1571 33.461L47.5321 32.7127L47.9924 32.032L48.5381 31.4117L49.1583 30.8661L49.8391 30.4057L50.5873 30.0307L51.1756 29.8139L51.787 29.6557L52.4269 29.5597L53.0952 29.5242L53.7652 29.5597L54.4033 29.6557L55.0165 29.8139L55.6048 30.0307L56.353 30.4057L57.0338 30.8661L57.654 31.4117L58.1997 32.032L58.6582 32.7127L59.035 33.461L59.2519 34.0493L59.4083 34.6607L59.506 35.3005L59.5416 35.9688Z" fill="url(#paint2_linear_985_28213)"/>
<path id="&#230;&#164;&#173;&#229;&#156;&#134;&#229;&#189;&#162;&#229;&#164;&#135;&#228;&#187;&#189;" fill-rule="evenodd" clip-rule="evenodd" d="M85.3255 35.9688L85.2899 36.6389L85.1922 37.2769L85.0358 37.8901L84.8189 38.4784L84.4421 39.2267L83.9818 39.9074L83.4362 40.5277L82.8176 41.0734L82.1369 41.5319L81.3887 41.9087L80.7986 42.1255L80.1872 42.2819L79.5491 42.3797L78.879 42.4152L78.209 42.3797L77.5709 42.2819L76.9595 42.1255L76.3694 41.9087L75.6212 41.5319L74.9404 41.0734L74.3219 40.5277L73.7763 39.9074L73.316 39.2267L72.9392 38.4784L72.7223 37.8901L72.5659 37.2769L72.4682 36.6389L72.4326 35.9688L72.4682 35.3005L72.5659 34.6607L72.7223 34.0493L72.9392 33.461L73.316 32.7127L73.7763 32.032L74.3219 31.4117L74.9404 30.8661L75.6212 30.4057L76.3694 30.0307L76.9595 29.8139L77.5709 29.6557L78.209 29.5597L78.879 29.5242L79.5491 29.5597L80.1872 29.6557L80.7986 29.8139L81.3887 30.0307L82.1369 30.4057L82.8176 30.8661L83.4362 31.4117L83.9818 32.032L84.4421 32.7127L84.8189 33.461L85.0358 34.0493L85.1922 34.6607L85.2899 35.3005L85.3255 35.9688Z" fill="url(#paint3_linear_985_28213)"/>
<path id="&#231;&#159;&#169;&#229;&#189;&#162;_302" d="M52.3175 21.1686L52.928 21.1253L53.5368 21.1686L54.1105 21.2843L54.6528 21.4743L55.1681 21.7337L55.6365 22.05L56.0618 22.4251L56.437 22.8504L56.7532 23.3188L57.0126 23.8341L57.2026 24.3764L57.3184 24.9501L57.3619 25.5633V34.9797L57.3184 35.5929L57.2026 36.1667L57.0126 36.709L56.7532 37.2242L56.4369 37.6927L56.0617 38.1198L55.6365 38.4948L55.1683 38.811L54.653 39.0686L54.1105 39.2587L53.5368 39.3745L52.928 39.4177L52.3175 39.3745L51.7455 39.2587L51.2013 39.0687L50.6879 38.8111L50.2195 38.4948L49.7925 38.1197L49.4174 37.6927L49.101 37.2242L48.8418 36.7091L48.6535 36.1667L48.5359 35.5929L48.4941 34.9799V25.5631L48.5359 24.9501L48.6535 24.3764L48.8418 23.8339L49.101 23.3188L49.4173 22.8504L49.7924 22.4252L50.2195 22.05L50.688 21.7336L51.2015 21.4743L51.7455 21.2843L52.3175 21.1686Z" fill="url(#paint4_linear_985_28213)" stroke="white" stroke-width="0.25"/>
<path id="&#231;&#159;&#169;&#229;&#189;&#162;_309" d="M78.0836 21.1686L78.6941 21.1253L79.3029 21.1686L79.8767 21.2843L80.419 21.4743L80.9342 21.7337L81.4026 22.05L81.8279 22.4251L82.2031 22.8504L82.5193 23.3188L82.7787 23.8341L82.9687 24.3764L83.0845 24.9501L83.128 25.5633V34.9797L83.0845 35.5929L82.9687 36.1667L82.7787 36.709L82.5193 37.2242L82.203 37.6927L81.8278 38.1198L81.4026 38.4948L80.9344 38.811L80.4191 39.0686L79.8767 39.2587L79.3029 39.3745L78.6941 39.4177L78.0836 39.3745L77.5116 39.2587L76.9674 39.0687L76.454 38.8111L75.9856 38.4948L75.5586 38.1197L75.1835 37.6927L74.8672 37.2242L74.6079 36.7091L74.4196 36.1667L74.302 35.5929L74.2603 34.9799V25.5631L74.302 24.9501L74.4196 24.3764L74.6079 23.8339L74.8672 23.3188L75.1834 22.8504L75.5585 22.4252L75.9856 22.05L76.4541 21.7336L76.9676 21.4743L77.5116 21.2843L78.0836 21.1686Z" fill="url(#paint5_linear_985_28213)" stroke="url(#paint6_linear_985_28213)" stroke-width="0.25"/>
<path id="&#231;&#159;&#169;&#229;&#189;&#162;_316" d="M49.8604 55.5132H81.6535C83.5329 55.5132 85.0582 57.0368 85.0582 58.9178C85.0582 60.7972 83.5328 62.3225 81.6535 62.3225H49.8604C47.981 62.3225 46.4557 60.7972 46.4557 58.9178C46.4557 57.0368 47.981 55.5132 49.8604 55.5132Z" fill="url(#paint7_linear_985_28213)" stroke="white" stroke-width="0.3"/>
<path id="&#231;&#159;&#169;&#229;&#189;&#162;_317" d="M49.8604 69.8457H65.8564C67.7376 69.8457 69.2611 71.3692 69.2611 73.2504C69.2611 75.1298 67.7375 76.6551 65.8564 76.6551H49.8604C47.981 76.6551 46.4557 75.1297 46.4557 73.2504C46.4557 71.3693 47.981 69.8457 49.8604 69.8457Z" fill="url(#paint8_linear_985_28213)" stroke="white" stroke-width="0.3"/>
</g>
<g id="Group">
<path id="&#230;&#164;&#173;&#229;&#156;&#134;&#229;&#189;&#162;_2" d="M28.7578 91.3789L28.6967 92.2558L28.5296 93.0805L28.2565 93.8622L27.8845 94.6025L27.4299 95.2763L26.8891 95.8891L26.2763 96.4299L25.6025 96.8845L24.8622 97.2565L24.0805 97.5296L23.2558 97.6967L22.3789 97.7578L21.502 97.6967L20.6773 97.5296L19.8956 97.2565L19.1553 96.8845L18.4815 96.4299L17.8687 95.8891L17.3279 95.2763L16.8733 94.6025L16.5013 93.8622L16.2282 93.0805L16.0611 92.2558L16 91.3789L16.0611 90.502L16.2282 89.6773L16.5013 88.8956L16.8733 88.1553L17.3279 87.4815L17.8687 86.8688L18.4815 86.3279L19.1553 85.8733L19.8956 85.5013L20.6773 85.2282L21.502 85.0611L22.3789 85L23.2558 85.0611L24.0805 85.2282L24.8622 85.5013L25.6025 85.8733L26.2763 86.3279L26.8891 86.8688L27.4299 87.4815L27.8845 88.1553L28.2565 88.8956L28.5296 89.6773L28.6967 90.502L28.7578 91.3789Z" fill="url(#paint9_radial_985_28213)"/>
<path id="&#230;&#164;&#173;&#229;&#156;&#134;&#229;&#189;&#162;&#229;&#164;&#135;&#228;&#187;&#189;_2" d="M110.008 22.5039L109.949 23.1436L109.789 23.7294L109.53 24.272L109.181 24.7644L108.764 25.1813L108.272 25.5298L107.729 25.7886L107.144 25.9485L106.504 26.0078L105.864 25.9485L105.278 25.7886L104.736 25.5298L104.243 25.1813L103.827 24.7644L103.478 24.272L103.219 23.7294L103.059 23.1436L103 22.5039L103.059 21.8642L103.219 21.2784L103.478 20.7358L103.827 20.2434L104.243 19.8266L104.736 19.478L105.278 19.2192L105.864 19.0593L106.504 19L107.144 19.0593L107.729 19.2192L108.272 19.478L108.764 19.8266L109.181 20.2434L109.53 20.7358L109.789 21.2784L109.949 21.8642L110.008 22.5039Z" fill="url(#paint10_radial_985_28213)" fill-opacity="0.562533"/>
</g>
<g id="Frame" clip-path="url(#clip0_985_28213)">
<path id="Union" fill-rule="evenodd" clip-rule="evenodd" d="M88.1109 97.3035C90.7421 99.0616 93.8355 100 97 100C101.243 100 105.313 98.3143 108.314 95.3137C111.314 92.3131 113 88.2435 113 84C113 80.8355 112.062 77.7421 110.304 75.1109C108.545 72.4797 106.047 70.4289 103.123 69.2179C100.199 68.0069 96.9823 67.6901 93.8786 68.3074C90.7749 68.9248 87.9239 70.4487 85.6863 72.6863C83.4487 74.9239 81.9248 77.7749 81.3074 80.8786C80.6901 83.9823 81.0069 87.1993 82.2179 90.1229C83.4289 93.0466 85.4797 95.5454 88.1109 97.3035Z" fill="url(#paint11_linear_985_28213)"/>
<path id="Ellipse 1793 (Stroke)" d="M97 96.125C103.696 96.125 109.125 90.6965 109.125 84C109.125 77.3035 103.696 71.875 97 71.875C90.3035 71.875 84.875 77.3035 84.875 84C84.875 90.6965 90.3035 96.125 97 96.125ZM112.875 84C112.875 92.7675 105.768 99.875 97 99.875C88.2325 99.875 81.125 92.7675 81.125 84C81.125 75.2325 88.2325 68.125 97 68.125C105.768 68.125 112.875 75.2325 112.875 84Z" fill="url(#paint12_linear_985_28213)" stroke="white" stroke-width="0.25"/>
<path id="Subtract" d="M94.2022 88.9983L94.2022 88.9982L94.2003 88.9963L89.9428 84.7648L89.942 84.764C89.7118 84.5385 89.5807 84.2307 89.5774 83.9084C89.5742 83.5862 89.6991 83.2758 89.9246 83.0456C90.1502 82.8155 90.458 82.6843 90.7802 82.6811C91.1023 82.6778 91.4124 82.8025 91.6425 83.0277L94.892 86.2772L94.9972 86.3825L95.1033 86.2781L102.409 79.089L102.41 79.088C102.522 78.976 102.655 78.8871 102.8 78.8264C102.946 78.7657 103.103 78.7343 103.261 78.734C103.419 78.7337 103.575 78.7646 103.722 78.8248C103.868 78.8851 104.001 78.9735 104.113 79.0851C104.224 79.1967 104.313 79.3292 104.374 79.4751C104.435 79.621 104.466 79.7775 104.467 79.9356C104.467 80.0936 104.436 80.2502 104.376 80.3963C104.315 80.5424 104.227 80.6753 104.115 80.7872L104.115 80.7873L95.9383 88.9969L95.9383 88.9968L95.9369 88.9983C95.8243 89.1144 95.6895 89.2067 95.5405 89.2697C95.3915 89.3327 95.2313 89.3652 95.0696 89.3652C94.9078 89.3652 94.7477 89.3327 94.5987 89.2697C94.4497 89.2067 94.3149 89.1144 94.2022 88.9983Z" fill="url(#paint13_linear_985_28213)" stroke="white" stroke-width="0.3"/>
</g>
</g>
<defs>
<filter id="filter0_d_985_28213" x="27" y="21.3138" width="81.5156" height="91.986" filterUnits="userSpaceOnUse" color-interpolation-filters="sRGB">
<feFlood flood-opacity="0" result="BackgroundImageFix"/>
<feColorMatrix in="SourceAlpha" type="matrix" values="0 0 0 0 0 0 0 0 0 0 0 0 0 0 0 0 0 0 127 0" result="hardAlpha"/>
<feOffset dx="2" dy="3"/>
<feGaussianBlur stdDeviation="5"/>
<feComposite in2="hardAlpha" operator="out"/>
<feColorMatrix type="matrix" values="0 0 0 0 0.244194 0 0 0 0 0.449262 0 0 0 0 0.847335 0 0 0 0.32 0"/>
<feBlend mode="normal" in2="BackgroundImageFix" result="effect1_dropShadow_985_28213"/>
<feBlend mode="normal" in="SourceGraphic" in2="effect1_dropShadow_985_28213" result="shape"/>
</filter>
<linearGradient id="paint0_linear_985_28213" x1="50.3789" y1="32.313" x2="78.3698" y2="85.6873" gradientUnits="userSpaceOnUse">
<stop stop-color="#60BCFF"/>
<stop offset="1" stop-color="#3586FF"/>
</linearGradient>
<linearGradient id="paint1_linear_985_28213" x1="28" y1="52" x2="76.5781" y2="116.706" gradientUnits="userSpaceOnUse">
<stop stop-color="white"/>
<stop offset="1" stop-color="white" stop-opacity="0"/>
</linearGradient>
<linearGradient id="paint2_linear_985_28213" x1="53.1978" y1="29.5242" x2="56.9317" y2="40.8014" gradientUnits="userSpaceOnUse">
<stop stop-color="#CEEBFF"/>
<stop offset="1" stop-color="#BBD6FF"/>
</linearGradient>
<linearGradient id="paint3_linear_985_28213" x1="78.9808" y1="29.5242" x2="82.7143" y2="40.8017" gradientUnits="userSpaceOnUse">
<stop stop-color="#CEEBFF"/>
<stop offset="1" stop-color="#BBD6FF"/>
</linearGradient>
<linearGradient id="paint4_linear_985_28213" x1="50.6486" y1="22.0302" x2="59.376" y2="31.6059" gradientUnits="userSpaceOnUse">
<stop stop-color="#60BCFF"/>
<stop offset="1" stop-color="#3586FF"/>
</linearGradient>
<linearGradient id="paint5_linear_985_28213" x1="76.4147" y1="22.0302" x2="85.1421" y2="31.6059" gradientUnits="userSpaceOnUse">
<stop stop-color="#60BCFF"/>
<stop offset="1" stop-color="#3586FF"/>
</linearGradient>
<linearGradient id="paint6_linear_985_28213" x1="79.9375" y1="24.0905" x2="71.7613" y2="30.6692" gradientUnits="userSpaceOnUse">
<stop stop-color="white"/>
<stop offset="1" stop-color="white" stop-opacity="0"/>
</linearGradient>
<linearGradient id="paint7_linear_985_28213" x1="65.7569" y1="55.3632" x2="65.7569" y2="62.4725" gradientUnits="userSpaceOnUse">
<stop stop-color="white" stop-opacity="0.8"/>
<stop offset="1" stop-color="white" stop-opacity="0.4"/>
</linearGradient>
<linearGradient id="paint8_linear_985_28213" x1="57.8584" y1="69.6957" x2="57.8584" y2="76.8051" gradientUnits="userSpaceOnUse">
<stop stop-color="white" stop-opacity="0.8"/>
<stop offset="1" stop-color="white" stop-opacity="0.4"/>
</linearGradient>
<radialGradient id="paint9_radial_985_28213" cx="0" cy="0" r="1" gradientUnits="userSpaceOnUse" gradientTransform="translate(19.0673 91.3789) scale(8.44177)">
<stop stop-color="#F2F7FF"/>
<stop offset="1" stop-color="#99C0FF"/>
</radialGradient>
<radialGradient id="paint10_radial_985_28213" cx="0" cy="0" r="1" gradientUnits="userSpaceOnUse" gradientTransform="translate(104.685 22.5039) scale(4.63703)">
<stop stop-color="#F2F7FF"/>
<stop offset="1" stop-color="#99C0FF"/>
</radialGradient>
<linearGradient id="paint11_linear_985_28213" x1="89" y1="69.7778" x2="100.29" y2="94.9701" gradientUnits="userSpaceOnUse">
<stop stop-color="#60BCFF"/>
<stop offset="1" stop-color="#3586FF"/>
</linearGradient>
<linearGradient id="paint12_linear_985_28213" x1="97.2526" y1="68" x2="106.521" y2="95.994" gradientUnits="userSpaceOnUse">
<stop stop-color="#CEEBFF"/>
<stop offset="1" stop-color="#BBD6FF"/>
</linearGradient>
<linearGradient id="paint13_linear_985_28213" x1="97.0219" y1="78.584" x2="97.0219" y2="89.5152" gradientUnits="userSpaceOnUse">
<stop stop-color="white" stop-opacity="0.8"/>
<stop offset="1" stop-color="white" stop-opacity="0.4"/>
</linearGradient>
<clipPath id="clip0_985_28213">
<rect width="32" height="32" fill="white" transform="translate(81 68)"/>
</clipPath>
</defs>
</svg>
