<svg xmlns="http://www.w3.org/2000/svg" width="14" height="14" viewBox="0 0 14 14" fill="none">
<g clip-path="url(#clip0_2341_1215)">
<ellipse cx="7" cy="12.4886" rx="5.91589" ry="1.51111" fill="#D2D5D9"/>
<path d="M7 0C5.35524 0 3.77785 0.653378 2.61483 1.8164C1.45181 2.97942 0.798431 4.55681 0.798431 6.20157C0.798431 7.84633 1.45181 9.42372 2.61483 10.5867C3.77785 11.7498 5.35524 12.4031 7 12.4031C8.64476 12.4031 10.2222 11.7498 11.3852 10.5867C12.5482 9.42372 13.2016 7.84633 13.2016 6.20157C13.2016 4.55681 12.5482 2.97942 11.3852 1.8164C10.2222 0.653378 8.64476 0 7 0ZM4.74573 1.26357L6.61395 2.3535V3.67133L4.46743 5.18451L3.25813 4.74498L2.77286 2.79768C3.30266 2.14029 3.97807 1.61509 4.74573 1.26357ZM1.59998 6.738L3.01627 5.48219L4.21472 5.91707L5.0248 8.46747L4.46898 9.29925H2.54417C2.0151 8.54055 1.68997 7.65857 1.59998 6.738ZM5.73876 11.4807L5.10697 9.73956L5.65736 8.91553H8.34496L8.89613 9.73956L8.26434 11.4799C7.43415 11.6781 6.56895 11.6789 5.73876 11.4807ZM11.4558 9.29848H9.53489L8.97675 8.46514L9.77133 5.91707L10.9861 5.47986L12.4 6.73723C12.31 7.6578 11.9849 8.53977 11.4558 9.29848ZM11.231 2.80233L10.7457 4.74265L9.51784 5.18451L7.38837 3.67133V2.3535L9.25582 1.26357C10.0248 1.61609 10.7011 2.14294 11.231 2.80233Z" fill="#A6B4C1"/>
</g>
<defs>
<clipPath id="clip0_2341_1215">
<rect width="14" height="14" fill="white"/>
</clipPath>
</defs>
</svg>