<svg width="20" height="20" viewBox="0 0 20 20" fill="none" xmlns="http://www.w3.org/2000/svg">
<g id="Frame" clip-path="url(#clip0_621_3333)">
<path id="Vector" d="M2.27083 9.99999L8.39583 16.125C8.60417 16.3333 8.705 16.5764 8.69833 16.8542C8.69167 17.1319 8.58389 17.375 8.375 17.5833C8.16667 17.7917 7.92361 17.8958 7.64583 17.8958C7.36806 17.8958 7.125 17.7917 6.91667 17.5833L0.5 11.1875C0.333334 11.0208 0.208333 10.8333 0.125 10.625C0.0416667 10.4167 0 10.2083 0 9.99999C0 9.79166 0.0416667 9.58333 0.125 9.37499C0.208333 9.16666 0.333334 8.97916 0.5 8.81249L6.91667 2.39583C7.125 2.18749 7.37167 2.08666 7.65667 2.09333C7.94167 2.09999 8.18806 2.20777 8.39583 2.41666C8.60417 2.62499 8.70833 2.86805 8.70833 3.14583C8.70833 3.42361 8.60417 3.66666 8.39583 3.87499L2.27083 9.99999Z" fill="#19191A"/>
</g>
<defs>
<clipPath id="clip0_621_3333">
<rect width="20" height="20" fill="white"/>
</clipPath>
</defs>
</svg>
