<svg width="16" height="16" viewBox="0 0 16 16" fill="none" xmlns="http://www.w3.org/2000/svg">
<g id="Group 1">
<circle id="Ellipse 1" cx="8" cy="8" r="8" fill="#F6B73D"/>
<path id="Union" fill-rule="evenodd" clip-rule="evenodd" d="M12.089 3.6374C11.1402 2.727 9.49506 1.92275 7.67123 2.00593C6.12052 2.07664 4.93704 2.59815 4.0137 3.33529C3.08209 4.07902 2.39563 5.05944 2 6.29611C2.08434 6.40279 2.20062 6.48537 2.31877 6.56929L2.31878 6.56929C2.37767 6.61113 2.43704 6.65329 2.49315 6.69894C2.5388 6.73608 2.58286 6.77804 2.62695 6.82004L2.62695 6.82004C2.73781 6.92563 2.84892 7.03147 2.9863 7.06149C3.46362 4.94106 5.10884 3.2878 7.54794 3.13385C8.8442 3.05204 9.89196 3.46612 10.6918 3.99995C11.5134 4.54832 12.1019 5.2283 12.5 6.17525C12.3544 6.22231 12.2006 6.26142 12.0469 6.30052C11.8037 6.3624 11.5604 6.42428 11.3493 6.51767C11.8544 6.73206 12.3826 6.96611 12.8991 7.19501L12.8992 7.19501C13.1682 7.31421 13.434 7.43201 13.6918 7.5449C13.7146 7.55492 13.7382 7.5669 13.7621 7.57911C13.8394 7.61848 13.9213 7.66017 14 7.64562C13.872 5.95914 13.1665 4.67118 12.089 3.6374ZM6.08904 8.41098C6.24552 8.41608 6.40995 8.41341 6.57437 8.41074C6.84177 8.40639 7.10917 8.40204 7.34246 8.43112C7.3373 8.49501 7.34 8.5666 7.3427 8.6382V8.63821C7.34711 8.75485 7.35151 8.87148 7.32191 8.95478H6.08904V9.65974C6.24555 9.66484 6.41 9.66217 6.57445 9.6595H6.57446C6.84182 9.65516 7.1092 9.65081 7.34246 9.67989V10.6265H8.43149C8.43669 10.5064 8.43397 10.3784 8.43124 10.2505C8.42681 10.0424 8.42238 9.83438 8.45204 9.65974H9.64383V8.95478C9.49255 8.94969 9.33334 8.95236 9.17413 8.95503C8.91522 8.95938 8.6563 8.96372 8.43149 8.93465V8.41098H9.64383V7.72617H8.67806C8.84369 7.44378 9.01153 7.16357 9.17937 6.88336C9.47521 6.38944 9.77105 5.89553 10.0548 5.38973H8.96575C8.77219 5.81607 8.56794 6.23191 8.36368 6.64775C8.22068 6.93889 8.07768 7.23001 7.93836 7.52474C7.76631 7.13733 7.58392 6.76006 7.40152 6.38278L7.40151 6.38276L7.40151 6.38275L7.4015 6.38274L7.4015 6.38273C7.24255 6.05396 7.08361 5.72519 6.93151 5.38971H5.78084C5.97181 5.75918 6.18931 6.12593 6.40487 6.48939L6.40487 6.4894L6.40488 6.48941L6.40488 6.48942C6.6521 6.90627 6.89675 7.3188 7.09589 7.72617H6.08904V8.41098ZM8.32876 13.9941C6.50493 14.0772 4.85978 13.273 3.91095 12.3626C2.83349 11.3288 2.12796 10.0409 2 8.35437C2.07871 8.33983 2.16057 8.38152 2.23786 8.42089C2.26183 8.43309 2.28536 8.44508 2.30822 8.45509C2.566 8.56799 2.83185 8.68579 3.10085 8.80499C3.61741 9.03388 4.14562 9.26794 4.65069 9.48233C4.43959 9.57572 4.19634 9.6376 3.95309 9.69947C3.79936 9.73858 3.64563 9.77768 3.50001 9.82474C3.89811 10.7717 4.48663 11.4517 5.30823 12C6.10803 12.5339 7.15579 12.948 8.45205 12.8661C10.8911 12.7122 12.5364 11.0589 13.0137 8.9385C13.1511 8.96853 13.2622 9.07436 13.373 9.17996C13.4171 9.22196 13.4612 9.26392 13.5068 9.30106C13.563 9.34671 13.6223 9.38887 13.6812 9.43071C13.7994 9.51463 13.9156 9.59721 14 9.70389C13.6044 10.9406 12.9179 11.921 11.9863 12.6647C11.063 13.4019 9.87947 13.9234 8.32876 13.9941Z" fill="white"/>
</g>
</svg>
