<svg width="12" height="12" viewBox="0 0 12 12" fill="none" xmlns="http://www.w3.org/2000/svg">
<g id="Frame" clip-path="url(#clip0_3443_57119)">
<path id="Vector" d="M10.5714 0H1.43755C1.19617 0 1 0.196168 1 0.437549V10.8425C1 11.0838 1.19617 11.28 1.43755 11.28H10.5714C10.8128 11.28 11.0089 11.0838 11.0089 10.8425V0.437549C11.0089 0.196168 10.8128 0 10.5714 0ZM8.36102 8.57085H3.66686C3.46559 8.57085 3.30223 8.40749 3.30223 8.20622C3.30223 8.00495 3.46559 7.8416 3.66686 7.8416H8.3603C8.56157 7.8416 8.72492 8.00495 8.72492 8.20622C8.72492 8.40749 8.5623 8.57085 8.36102 8.57085ZM8.36102 6.00462H3.66686C3.46559 6.00462 3.30223 5.84127 3.30223 5.64C3.30223 5.43873 3.46559 5.27538 3.66686 5.27538H8.3603C8.56157 5.27538 8.72492 5.43873 8.72492 5.64C8.72565 5.842 8.5623 6.00462 8.36102 6.00462ZM8.36102 3.41142H3.66686C3.46559 3.41142 3.30223 3.24807 3.30223 3.0468C3.30223 2.84552 3.46559 2.68217 3.66686 2.68217H8.3603C8.56157 2.68217 8.72492 2.84552 8.72492 3.0468C8.72492 3.24807 8.5623 3.41142 8.36102 3.41142Z" fill="#3586FF"/>
</g>
<defs>
<clipPath id="clip0_3443_57119">
<rect width="12" height="12" fill="white"/>
</clipPath>
</defs>
</svg>
