<svg width="12" height="12" viewBox="0 0 12 12" fill="none" xmlns="http://www.w3.org/2000/svg">
<path id="Vector" d="M6 0C9.3138 0 12 2.6862 12 6C12 9.3138 9.3138 12 6 12C2.6862 12 0 9.3138 0 6C0 2.6862 2.6862 0 6 0ZM4.9458 7.74L3.672 6.4662C3.61665 6.40889 3.55044 6.36318 3.47724 6.33174C3.40404 6.30029 3.32531 6.28374 3.24564 6.28305C3.16597 6.28236 3.08696 6.29754 3.01323 6.32771C2.93949 6.35787 2.8725 6.40243 2.81616 6.45876C2.75983 6.5151 2.71528 6.58209 2.68511 6.65583C2.65494 6.72956 2.63976 6.80857 2.64045 6.88824C2.64114 6.96791 2.65769 7.04664 2.68914 7.11984C2.72058 7.19304 2.76629 7.25925 2.8236 7.3146L4.521 9.012C4.63352 9.12448 4.7861 9.18767 4.9452 9.18767C5.1043 9.18767 5.25688 9.12448 5.3694 9.012L9.6114 4.7694C9.67005 4.71441 9.71704 4.64819 9.74959 4.57467C9.78215 4.50116 9.79959 4.42186 9.8009 4.34147C9.80221 4.26108 9.78734 4.18126 9.75719 4.10673C9.72704 4.0322 9.68222 3.96448 9.62539 3.90762C9.56856 3.85075 9.50089 3.80588 9.42638 3.77568C9.35187 3.74547 9.27205 3.73055 9.19166 3.7318C9.11127 3.73305 9.03196 3.75044 8.95842 3.78294C8.88489 3.81544 8.81863 3.86239 8.7636 3.921L4.9452 7.7388L4.9458 7.74Z" fill="#69CA5F"/>
</svg>
