<svg width="160" height="136" viewBox="0 0 160 136" fill="none" xmlns="http://www.w3.org/2000/svg">
<ellipse cx="80" cy="90" rx="80" ry="34" fill="url(#paint0_linear_985_27358)"/>
<ellipse cx="80" cy="120" rx="35" ry="5" fill="#74767C"/>
<circle cx="138" cy="88" r="3.75" stroke="#88B6FB" stroke-width="2.5"/>
<circle cx="17" cy="25" r="3.75" stroke="#88B6FB" stroke-width="2.5"/>
<path d="M25.4531 78.4531V75.6279C25.4531 75.2813 25.7344 75 26.0811 75C26.4277 75 26.709 75.2813 26.709 75.6279V78.4531H29.5342C29.8809 78.4531 30.1621 78.7344 30.1621 79.0811C30.1621 79.4277 29.8809 79.709 29.5342 79.709H26.709V82.5342C26.709 82.8809 26.4277 83.1621 26.0811 83.1621C25.7344 83.1621 25.4531 82.8809 25.4531 82.5342V79.709H22.6279C22.2812 79.709 22 79.4277 22 79.0811C22 78.7344 22.2812 78.4531 22.6279 78.4531H25.4531Z" fill="#88B6FB"/>
<path d="M132.115 51.1153V49.3847C132.115 49.1723 132.288 49 132.5 49C132.712 49 132.885 49.1723 132.885 49.3847V51.1153H134.615C134.828 51.1153 135 51.2876 135 51.5C135 51.7124 134.828 51.8847 134.615 51.8847H132.885V53.6153C132.885 53.8277 132.712 54 132.5 54C132.288 54 132.115 53.8277 132.115 53.6153V51.8847H130.385C130.172 51.8847 130 51.7124 130 51.5C130 51.2876 130.172 51.1153 130.385 51.1153H132.115Z" fill="#88B6FB"/>
<path d="M89.1153 2.11534V0.384661C89.1153 0.17229 89.2876 0 89.5 0C89.7124 0 89.8847 0.17229 89.8847 0.384661V2.11534H91.6153C91.8277 2.11534 92 2.28763 92 2.5C92 2.71237 91.8277 2.88466 91.6153 2.88466H89.8847V4.61534C89.8847 4.82771 89.7124 5 89.5 5C89.2876 5 89.1153 4.82771 89.1153 4.61534V2.88466H87.3847C87.1723 2.88466 87 2.71237 87 2.5C87 2.28763 87.1723 2.11534 87.3847 2.11534H89.1153Z" fill="#88B6FB"/>
<path d="M94.0295 56.0285C89.7141 56.0285 86.2073 59.7028 86.2073 64.2165C86.2073 68.7405 89.7043 72.4148 94.0295 72.4148H122V90.9852C122 94.3026 119.427 97 116.256 97H41.7432C38.5723 97 36 94.3026 36 90.974V37.4689C36 34.1514 38.5723 31.4536 41.7432 31.4536H116.257C119.427 31.4536 122 34.1514 122 37.4689V56.0388L94.0295 56.0285ZM116.236 27.7268H65.1459L103.857 11.4346C106.797 10.1958 110.146 11.6969 111.322 14.7727L116.288 27.7264L116.236 27.7268ZM98.03 64.1954C98.03 66.4525 96.2762 68.2894 94.1241 68.2894C91.9613 68.2894 90.2182 66.4529 90.2182 64.1954C90.2182 61.9379 91.9716 60.1014 94.1241 60.1014C96.2762 60.0907 98.03 61.928 98.03 64.1954Z" fill="url(#paint1_linear_985_27358)"/>
<g filter="url(#filter0_d_985_27358)">
<circle cx="117" cy="77" r="14" fill="#3586FF"/>
</g>
<g clip-path="url(#clip0_985_27358)">
<path d="M113.354 76.8541C113.548 76.8541 113.733 76.931 113.87 77.0677C114.007 77.2045 114.083 77.3899 114.083 77.5833V82.6875C114.083 82.8809 114.007 83.0663 113.87 83.2031C113.733 83.3398 113.548 83.4166 113.354 83.4166H111.167C110.973 83.4166 110.788 83.3398 110.651 83.2031C110.514 83.0663 110.438 82.8809 110.438 82.6875V77.5833C110.438 77.3899 110.514 77.2045 110.651 77.0677C110.788 76.931 110.973 76.8541 111.167 76.8541H113.354ZM118.094 73.2083C118.287 73.2083 118.473 73.2851 118.609 73.4219C118.746 73.5586 118.823 73.7441 118.823 73.9375V82.6875C118.823 82.8809 118.746 83.0663 118.609 83.2031C118.473 83.3398 118.287 83.4166 118.094 83.4166H115.906C115.713 83.4166 115.527 83.3398 115.391 83.2031C115.254 83.0663 115.177 82.8809 115.177 82.6875V73.9375C115.177 73.8417 115.196 73.7469 115.233 73.6584C115.269 73.57 115.323 73.4896 115.391 73.4219C115.458 73.3542 115.539 73.3005 115.627 73.2638C115.716 73.2272 115.81 73.2083 115.906 73.2083H118.094ZM122.833 68.8333C123.027 68.8333 123.212 68.9101 123.349 69.0469C123.486 69.1836 123.562 69.3691 123.562 69.5625V82.6875C123.562 82.8809 123.486 83.0663 123.349 83.2031C123.212 83.3398 123.027 83.4166 122.833 83.4166H120.646C120.452 83.4166 120.267 83.3398 120.13 83.2031C119.993 83.0663 119.917 82.8809 119.917 82.6875V69.5625C119.917 69.3691 119.993 69.1836 120.13 69.0469C120.267 68.9101 120.452 68.8333 120.646 68.8333H122.833Z" fill="url(#paint2_linear_985_27358)"/>
<path d="M124.292 81.9583C124.481 81.9575 124.663 82.0302 124.8 82.1612C124.936 82.2921 125.017 82.471 125.024 82.6601C125.031 82.8492 124.964 83.0336 124.838 83.1745C124.711 83.3153 124.535 83.4015 124.346 83.4148L124.292 83.4167H109.708C109.519 83.4175 109.337 83.3448 109.2 83.2138C109.064 83.0829 108.984 82.9039 108.976 82.7149C108.969 82.5258 109.036 82.3413 109.162 82.2005C109.289 82.0597 109.465 81.9735 109.654 81.9601L109.708 81.9583H124.292Z" fill="url(#paint3_linear_985_27358)"/>
</g>
<defs>
<filter id="filter0_d_985_27358" x="99" y="63" width="36" height="36" filterUnits="userSpaceOnUse" color-interpolation-filters="sRGB">
<feFlood flood-opacity="0" result="BackgroundImageFix"/>
<feColorMatrix in="SourceAlpha" type="matrix" values="0 0 0 0 0 0 0 0 0 0 0 0 0 0 0 0 0 0 127 0" result="hardAlpha"/>
<feOffset dy="4"/>
<feGaussianBlur stdDeviation="2"/>
<feComposite in2="hardAlpha" operator="out"/>
<feColorMatrix type="matrix" values="0 0 0 0 0 0 0 0 0 0 0 0 0 0 0 0 0 0 0.09 0"/>
<feBlend mode="normal" in2="BackgroundImageFix" result="effect1_dropShadow_985_27358"/>
<feBlend mode="normal" in="SourceGraphic" in2="effect1_dropShadow_985_27358" result="shape"/>
</filter>
<linearGradient id="paint0_linear_985_27358" x1="80" y1="56" x2="80" y2="107.395" gradientUnits="userSpaceOnUse">
<stop stop-color="#CADBFF"/>
<stop offset="1" stop-color="#DAE7FF" stop-opacity="0"/>
</linearGradient>
<linearGradient id="paint1_linear_985_27358" x1="79" y1="11" x2="79" y2="97" gradientUnits="userSpaceOnUse">
<stop stop-color="#B3CCF9"/>
<stop offset="1" stop-color="#88B8FF"/>
</linearGradient>
<linearGradient id="paint2_linear_985_27358" x1="117" y1="68.8333" x2="117" y2="83.4166" gradientUnits="userSpaceOnUse">
<stop stop-color="#B3CCF9"/>
<stop offset="1" stop-color="#88B8FF"/>
</linearGradient>
<linearGradient id="paint3_linear_985_27358" x1="117" y1="81.9583" x2="117" y2="83.4167" gradientUnits="userSpaceOnUse">
<stop stop-color="#B3CCF9"/>
<stop offset="1" stop-color="#88B8FF"/>
</linearGradient>
<clipPath id="clip0_985_27358">
<rect width="17.5" height="17.5" fill="white" transform="translate(108.25 67.375)"/>
</clipPath>
</defs>
</svg>
