<svg width="70" height="63" viewBox="0 0 70 63" fill="none" xmlns="http://www.w3.org/2000/svg">
<g id="&#229;&#141;&#177;&#233;&#153;&#169;">
<g id="Group">
<path id="&#230;&#164;&#173;&#229;&#156;&#134;&#229;&#189;&#162;" fill-rule="evenodd" clip-rule="evenodd" d="M57.5737 35.0042C58.9717 35.0042 60.1063 36.1387 60.1063 37.5367C60.1063 38.9347 58.9717 40.0693 57.5737 40.0693C56.1757 40.0693 55.0411 38.9347 55.0411 37.5367C55.0411 36.1387 56.1757 35.0042 57.5737 35.0042ZM57.572 36.2758C58.271 36.2758 58.8349 36.8397 58.8349 37.5354C58.8349 38.2344 58.271 38.7983 57.572 38.7983C56.8764 38.7983 56.3125 38.2344 56.3125 37.5354C56.3125 36.8397 56.8764 36.2758 57.572 36.2758Z" fill="#9BBCF2"/>
<g id="Group_2">
<g id="&#231;&#159;&#169;&#229;&#189;&#162;&#229;&#164;&#135;&#228;&#187;&#189; 8" opacity="0.4" filter="url(#filter0_f_1488_2312)">
<path id="&#231;&#159;&#169;&#229;&#189;&#162;&#229;&#164;&#135;&#228;&#187;&#189; 8_2" opacity="0.3" fill-rule="evenodd" clip-rule="evenodd" d="M24.2669 46.9998H45.4426C46.6177 46.9998 47.5699 46.0476 47.5699 44.8725V18.7363C47.5699 17.5611 46.6177 16.6089 45.4426 16.6089H24.2669C23.0918 16.6089 22.1395 17.5611 22.1395 18.7363V44.8725C22.1395 46.0476 23.0918 46.9998 24.2669 46.9998Z" fill="#373B47"/>
</g>
<path id="&#231;&#159;&#169;&#229;&#189;&#162;" fill-rule="evenodd" clip-rule="evenodd" d="M21.0876 43.9608H48.6217C49.7968 43.9608 50.7491 43.0086 50.7491 41.8335V8.09953C50.7491 6.92442 49.7968 5.97217 48.6217 5.97217H21.0876C19.9125 5.97217 18.9602 6.92442 18.9602 8.09953V41.8335C18.9602 43.0086 19.9125 43.9608 21.0876 43.9608Z" fill="url(#paint0_linear_1488_2312)"/>
<path id="&#231;&#159;&#169;&#229;&#189;&#162;&#229;&#164;&#135;&#228;&#187;&#189; 5" fill-rule="evenodd" clip-rule="evenodd" d="M22.3946 41.6815H47.3152C47.8183 41.6815 48.2269 41.2729 48.2269 40.7698V9.16319C48.2269 8.66005 47.8183 8.25146 47.3152 8.25146H22.3946C21.8915 8.25146 21.4829 8.66005 21.4829 9.16319V40.7698C21.4829 41.2729 21.8915 41.6815 22.3946 41.6815Z" fill="white"/>
<path id="&#229;&#189;&#162;&#231;&#138;&#182;&#231;&#187;&#147;&#229;&#144;&#136;" opacity="0.4" fill-rule="evenodd" clip-rule="evenodd" d="M25.2744 21.5857H28.4925C28.9956 21.5857 29.4042 21.1771 29.4042 20.674V17.4559C29.4042 16.9528 28.9956 16.5442 28.4925 16.5442H25.2744C24.7713 16.5442 24.3627 16.9528 24.3627 17.4559V20.674C24.3627 21.1771 24.7713 21.5857 25.2744 21.5857ZM32.8523 18.4318H43.7255C44.2455 18.4318 44.671 18.0097 44.671 17.4897C44.671 16.9663 44.2489 16.5442 43.7255 16.5442H32.8523C32.3289 16.5442 31.9068 16.9663 31.9068 17.4897C31.9068 18.0097 32.3322 18.4318 32.8523 18.4318ZM39.0284 21.5859H32.8523C32.3322 21.5859 31.9068 21.1638 31.9068 20.6438C31.9068 20.1204 32.3289 19.6983 32.8523 19.6983H39.0284C39.5518 19.6983 39.9739 20.1204 39.9739 20.6438C39.9739 21.1638 39.5484 21.5859 39.0284 21.5859Z" fill="#9DB7EB"/>
<path id="&#229;&#189;&#162;&#231;&#138;&#182;" opacity="0.4" fill-rule="evenodd" clip-rule="evenodd" d="M25.2744 27.8992C24.7713 27.8992 24.3627 28.3078 24.3627 28.8109V32.029C24.3627 32.5321 24.7713 32.9407 25.2744 32.9407H28.4925C28.9956 32.9407 29.4042 32.5321 29.4042 32.029V28.8109C29.4042 28.3078 28.9956 27.8992 28.4925 27.8992H25.2744ZM31.9068 28.8447C31.9068 28.3213 32.3289 27.8992 32.8523 27.8992H43.7255C44.2489 27.8992 44.671 28.3213 44.671 28.8447C44.671 29.3647 44.2489 29.7868 43.7255 29.7868H32.8523C32.3289 29.7868 31.9068 29.3647 31.9068 28.8447ZM32.8523 31.0532C32.3289 31.0532 31.9068 31.4753 31.9068 31.9987C31.9068 32.5188 32.3289 32.9409 32.8523 32.9409H39.0284C39.5518 32.9409 39.9739 32.5188 39.9739 31.9987C39.9739 31.4753 39.5518 31.0532 39.0284 31.0532H32.8523Z" fill="#9DB7EB"/>
<path id="&#232;&#183;&#175;&#229;&#190;&#132;" opacity="0.2" fill-rule="evenodd" clip-rule="evenodd" d="M48.2269 40.7684V38.8977L48.2235 38.9517C48.1965 39.4312 47.8015 39.8094 47.3152 39.8094H22.3406C21.8611 39.779 21.4829 39.384 21.4829 38.8977V40.7684C21.4829 41.2749 21.8915 41.6802 22.3946 41.6802H47.3152C47.8183 41.6802 48.2269 41.2749 48.2269 40.7684Z" fill="#8994AB"/>
<path id="&#231;&#159;&#169;&#229;&#189;&#162;&#229;&#164;&#135;&#228;&#187;&#189; 6" fill-rule="evenodd" clip-rule="evenodd" d="M31.667 8.04077H37.9207C38.4239 8.04077 38.8325 7.63218 38.8325 7.12904V4.08995C38.8325 3.58681 38.4239 3.17822 37.9207 3.17822H31.667C31.1638 3.17822 30.7552 3.58681 30.7552 4.08995V7.12904C30.7552 7.63218 31.1638 8.04077 31.667 8.04077Z" fill="url(#paint1_linear_1488_2312)"/>
<path id="&#231;&#159;&#169;&#229;&#189;&#162;_2" fill-rule="evenodd" clip-rule="evenodd" d="M27.6521 10.1851H41.9359C42.2702 10.1851 42.5437 9.91158 42.5437 9.57728V5.0524C42.5437 4.7181 42.2702 4.44458 41.9359 4.44458H27.6521C27.3178 4.44458 27.0443 4.7181 27.0443 5.0524V9.57728C27.0443 9.91158 27.3178 10.1851 27.6521 10.1851Z" fill="url(#paint2_linear_1488_2312)"/>
</g>
<path id="&#232;&#183;&#175;&#229;&#190;&#132;_2" fill-rule="evenodd" clip-rule="evenodd" d="M11.3114 30.6918V31.9648C11.3114 32.2451 11.5377 32.4713 11.8179 32.4713C12.0982 32.4713 12.3244 32.2451 12.3244 31.9648V30.6918H13.5975C13.8778 30.6918 14.104 30.4655 14.104 30.1852C14.104 29.905 13.8778 29.6787 13.5975 29.6787H12.3244V28.4057C12.3244 28.1254 12.0982 27.8992 11.8179 27.8992C11.5377 27.8992 11.3114 28.1254 11.3114 28.4057V29.6787H10.0384C9.7581 29.6787 9.53186 29.905 9.53186 30.1852C9.53186 30.4655 9.7581 30.6918 10.0384 30.6918H11.3114Z" fill="#99B9F0"/>
<path id="&#232;&#183;&#175;&#229;&#190;&#132;&#229;&#164;&#135;&#228;&#187;&#189;" fill-rule="evenodd" clip-rule="evenodd" d="M59.4234 14.1887V13.4425H60.1697C60.3351 13.4425 60.4668 13.3108 60.4668 13.1453C60.4668 12.9832 60.3351 12.8515 60.1697 12.8515H59.4234V12.1053C59.4234 11.9398 59.2917 11.8081 59.1296 11.8081C58.9642 11.8081 58.8325 11.9398 58.8325 12.1053V12.8515H58.0862C57.9241 12.8515 57.7891 12.9832 57.7891 13.1453C57.7891 13.3108 57.9241 13.4425 58.0862 13.4425H58.8325V14.1887C58.8325 14.3508 58.9642 14.4859 59.1296 14.4859C59.2917 14.4859 59.4234 14.3508 59.4234 14.1887Z" fill="#B7D0F7"/>
</g>
<path id="Vector" d="M39.4371 23.2903H31.3768C30.6806 23.2903 30.1163 23.8567 30.1163 24.5557V29.9238C30.1163 30.6228 30.6806 31.1893 31.3768 31.1893H39.4371C40.1333 31.1893 40.6977 30.6228 40.6977 29.9238V24.5557C40.6977 23.8567 40.1333 23.2903 39.4371 23.2903ZM35.9378 27.2035V28.6125C35.9378 28.9073 35.7003 29.1465 35.4069 29.1465C35.1137 29.1465 34.8761 28.9073 34.8761 28.6125V27.2035C34.5591 27.0188 34.3452 26.6745 34.3452 26.2793C34.3452 25.6894 34.8205 25.2112 35.4069 25.2112C35.9934 25.2112 36.4689 25.6894 36.4689 26.2793C36.4689 26.6745 36.2551 27.0188 35.9378 27.2035ZM35.4069 18.2163C33.3545 18.2163 31.6905 19.8666 31.6905 22.0348V23.6931L39.1236 24.0491V22.0348C39.1236 19.8666 37.4596 18.2163 35.4069 18.2163ZM32.7529 23.5994V21.9977C32.7529 20.5234 33.9412 19.3279 35.4069 19.3279C36.8728 19.3279 38.061 20.5234 38.061 21.9977V23.6369L32.7529 23.5994Z" fill="url(#paint3_linear_1488_2312)"/>
</g>
<defs>
<filter id="filter0_f_1488_2312" x="6.13953" y="0.608887" width="57.4304" height="62.3909" filterUnits="userSpaceOnUse" color-interpolation-filters="sRGB">
<feFlood flood-opacity="0" result="BackgroundImageFix"/>
<feBlend mode="normal" in="SourceGraphic" in2="BackgroundImageFix" result="shape"/>
<feGaussianBlur stdDeviation="8" result="effect1_foregroundBlur_1488_2312"/>
</filter>
<linearGradient id="paint0_linear_1488_2312" x1="1608.4" y1="5.97217" x2="1653.8" y2="3804.68" gradientUnits="userSpaceOnUse">
<stop stop-color="#B6CEFA"/>
<stop offset="1" stop-color="#82A9E8"/>
</linearGradient>
<linearGradient id="paint1_linear_1488_2312" x1="434.617" y1="3.17822" x2="437.544" y2="489.464" gradientUnits="userSpaceOnUse">
<stop stop-color="#C5D9FA"/>
<stop offset="0.9995" stop-color="#83A9EB"/>
</linearGradient>
<linearGradient id="paint2_linear_1488_2312" x1="802.012" y1="4.44458" x2="804.139" y2="578.546" gradientUnits="userSpaceOnUse">
<stop stop-color="#D4E4FF"/>
<stop offset="0.999" stop-color="#7EA7ED"/>
</linearGradient>
<linearGradient id="paint3_linear_1488_2312" x1="35.4906" y1="18.2163" x2="39.8793" y2="29.0278" gradientUnits="userSpaceOnUse">
<stop stop-color="#9FC2FF"/>
<stop offset="1" stop-color="#68A2FF"/>
</linearGradient>
</defs>
</svg>
